<svg width="24" height="24" viewBox="0 0 24 24" fill="none" xmlns="http://www.w3.org/2000/svg">
<path d="M21.0767 8.97127C21.0606 9.26075 20.9748 9.54206 20.8267 9.79127C20.6869 10.0387 20.496 10.2534 20.2667 10.4213C20.1668 10.4938 20.0495 10.5387 19.9267 10.5513L18.1667 10.7813C17.9714 10.8145 17.7904 10.905 17.6467 11.0413C17.1167 11.5513 16.5767 12.0413 15.8367 12.8213L14.9867 13.6613C14.8762 13.776 14.797 13.9172 14.7567 14.0713L13.8167 17.8513C13.8207 17.8912 13.8207 17.9314 13.8167 17.9713C13.6865 18.2644 13.4877 18.5219 13.237 18.722C12.9864 18.9222 12.6913 19.0591 12.3767 19.1213H12.0167C11.8207 19.1194 11.6258 19.0925 11.4367 19.0413C11.1304 18.9473 10.8521 18.779 10.6267 18.5513L8.08669 16.0213L3.41669 20.6913C3.27451 20.8238 3.08647 20.8959 2.89216 20.8924C2.69786 20.889 2.51248 20.8103 2.37507 20.6729C2.23765 20.5355 2.15894 20.3501 2.15551 20.1558C2.15208 19.9615 2.22421 19.7734 2.35669 19.6313L7.02669 14.9613L4.52669 12.4613C4.30314 12.2305 4.13849 11.9492 4.04669 11.6413C3.94513 11.3348 3.92786 11.0067 3.99669 10.6913C4.05543 10.3804 4.18932 10.0886 4.38669 9.84127C4.58659 9.59062 4.84381 9.3917 5.13669 9.26127H5.25669L8.99669 8.26127C9.16236 8.21704 9.31388 8.13095 9.43669 8.01127C10.8267 6.64127 11.3067 6.16127 12.0667 5.34127C12.1961 5.2043 12.2769 5.02864 12.2967 4.84127L12.5367 3.07127C12.5475 2.94499 12.5925 2.82402 12.6667 2.72127C12.9225 2.37698 13.2822 2.12404 13.6928 1.9998C14.1033 1.87556 14.5429 1.88659 14.9467 2.03127C15.217 2.13095 15.4626 2.28787 15.6667 2.49127L20.5467 7.39127C20.7466 7.59415 20.9008 7.83738 20.9991 8.10469C21.0974 8.372 21.1375 8.65723 21.1167 8.94127L21.0767 8.97127Z" fill="#BC8853"/>
</svg>
