<svg width="13" height="29" viewBox="0 0 13 29" fill="none" xmlns="http://www.w3.org/2000/svg">
<path d="M6.04852 29C5.61705 29 5.26758 28.6703 5.26758 28.2633V8.37103C5.26758 7.96397 5.61705 7.63428 6.04852 7.63428C6.48 7.63428 6.82947 7.96397 6.82947 8.37103V28.2633C6.82947 28.6703 6.48 29 6.04852 29Z" fill="#BC8853"/>
<path d="M5.26441 28.2634H2.5311C2.31439 28.2634 2.14062 28.0994 2.14062 27.895C2.14062 27.6905 2.31439 27.5266 2.5311 27.5266H5.26441V28.2634Z" fill="#BC8853"/>
<path d="M5.26276 26.0531H2.91992V26.7899H5.26276V26.0531Z" fill="#BC8853"/>
<path d="M5.26441 26.0531H2.92157C2.4901 26.0531 2.14062 25.7234 2.14062 25.3163C2.14062 24.9093 2.4901 24.5796 2.92157 24.5796H5.26441V26.0531Z" fill="#BC8853"/>
<path d="M5.26502 23.8427H4.0936C3.87689 23.8427 3.70312 23.6788 3.70312 23.4743C3.70312 23.2699 3.87689 23.106 4.0936 23.106H5.26502V23.8427Z" fill="#BC8853"/>
<path d="M5.52547 4.61724C5.52547 4.61724 5.57819 4.57487 5.67581 4.49751C5.74609 4.43489 5.98037 4.2636 6.23418 4.11809C6.48604 3.97626 6.81208 3.83076 7.20451 3.72393C7.59693 3.62262 8.05574 3.56184 8.55164 3.59131C9.04559 3.62078 9.57859 3.7405 10.0842 3.97995C10.586 4.21571 11.0741 4.57487 11.4294 5.02061L11.5798 5.22137C11.6227 5.28768 11.6598 5.35214 11.7008 5.41845C11.7418 5.48292 11.775 5.55291 11.8062 5.6229C11.8375 5.69289 11.8746 5.76104 11.896 5.83472C12.0093 6.12205 12.0639 6.42964 12.0796 6.73723C12.0971 7.04483 12.0561 7.35795 11.9702 7.65633C11.8843 7.95471 11.7516 8.24573 11.57 8.50359C11.529 8.5699 11.4782 8.63252 11.4275 8.69331C11.3767 8.75409 11.3299 8.81671 11.2713 8.87197L11.1034 9.03958L11.08 9.06168L11.0761 9.06536L11.0663 9.07273L11.0468 9.08747L11.0077 9.11878L10.9296 9.1814C10.6387 9.40058 10.3478 9.53504 10.0276 9.62714C9.39116 9.80396 8.70978 9.73581 8.15531 9.47242C8.08503 9.44111 8.01669 9.40611 7.95422 9.36743C7.88979 9.32875 7.82341 9.29191 7.76484 9.24587C7.70627 9.20166 7.64184 9.16298 7.59108 9.11141L7.50908 9.03958L7.46808 9.00274L7.44855 8.98432L7.42513 8.96038L7.41732 8.95117C7.37632 8.90328 7.34117 8.87197 7.29432 8.81119C7.24746 8.74856 7.19279 8.68225 7.15765 8.62147C7.08151 8.49991 7.01903 8.37282 6.97413 8.24389C6.7867 7.72264 6.85308 7.17744 7.0737 6.75934C7.18303 6.54936 7.32556 6.36702 7.4876 6.21967L7.49541 6.2123L7.51493 6.19388L7.5286 6.18283L7.55593 6.16257L7.60865 6.12021C7.64965 6.08889 7.70627 6.05206 7.75312 6.02074C7.85074 5.96365 7.9425 5.9176 8.04012 5.88076C8.42669 5.7371 8.80155 5.74631 9.08269 5.81814C9.36578 5.88813 9.56297 6.00785 9.68401 6.0981C9.74649 6.14047 9.78749 6.18283 9.81678 6.20862C9.84606 6.2344 9.85973 6.2473 9.85973 6.2473C9.97101 6.3486 9.97492 6.51621 9.86754 6.6212C9.76601 6.7225 9.60006 6.72987 9.48683 6.6433L9.46144 6.62304C9.46144 6.62304 9.45168 6.61567 9.43021 6.59909C9.40873 6.58436 9.3814 6.55673 9.33845 6.53279C9.25645 6.47753 9.12369 6.40938 8.94212 6.37439C8.76055 6.33755 8.52431 6.3486 8.29588 6.44806C8.23926 6.47385 8.18264 6.507 8.12993 6.54015C8.1065 6.55857 8.08893 6.56778 8.05965 6.59357L8.01084 6.63777L7.98546 6.65988L7.97179 6.67093C7.97179 6.67093 7.95812 6.68382 7.98155 6.66172H7.9796L7.97569 6.66908C7.87417 6.77407 7.78827 6.89932 7.72579 7.0393C7.60084 7.31927 7.58327 7.67106 7.71993 7.98603C7.75312 8.06523 7.79803 8.14074 7.84684 8.21258C7.87027 8.25126 7.89565 8.27152 7.91907 8.30283C7.94446 8.33414 7.99912 8.38387 8.03817 8.42255L8.04598 8.42992C8.05965 8.44465 8.03036 8.41518 8.03426 8.41887L8.03817 8.42255L8.05184 8.4336L8.08112 8.4557L8.13774 8.50175C8.17288 8.5349 8.21974 8.55516 8.25879 8.58463C8.29783 8.6141 8.34469 8.63437 8.38764 8.65647C8.4306 8.68041 8.47745 8.70067 8.52431 8.71725C8.89721 8.86828 9.3404 8.88486 9.73087 8.7504C9.9222 8.68778 10.1174 8.57358 10.2463 8.46491L10.3732 8.34888L10.4786 8.22915C10.5177 8.19232 10.5431 8.14627 10.5743 8.10391C10.6055 8.06154 10.6368 8.01918 10.6622 7.97313C10.7734 7.79631 10.8457 7.59923 10.8906 7.40215C10.9355 7.20323 10.9491 7.00062 10.9238 6.8017C10.9003 6.60462 10.8554 6.41122 10.7715 6.2344C10.7559 6.18836 10.7266 6.14783 10.7051 6.10547C10.6836 6.06311 10.6602 6.02074 10.6309 5.98207L10.5509 5.86603C10.5235 5.83472 10.4982 5.80525 10.4728 5.77393C10.1916 5.45897 9.85778 5.25268 9.51416 5.11086C9.16859 4.97088 8.81521 4.91194 8.49307 4.91194C8.16898 4.91194 7.87808 4.96719 7.63208 5.04455C7.38803 5.12744 7.19084 5.23058 7.03856 5.3282C6.99756 5.3503 6.96632 5.37425 6.94094 5.39451C6.91361 5.41477 6.88823 5.43319 6.8648 5.45161C6.8238 5.47555 6.75742 5.53817 6.71251 5.5787C6.62075 5.66158 6.56999 5.70763 6.56999 5.70763C6.25761 5.98943 5.76366 5.97838 5.46495 5.68552C5.16624 5.39267 5.17795 4.92483 5.48838 4.64302C5.49814 4.63197 5.50985 4.62276 5.52157 4.61355L5.52547 4.61724Z" fill="#BC8853"/>
<path d="M5.51565 5.70934C5.51565 5.70934 5.46684 5.66513 5.37313 5.5804C5.32822 5.53988 5.26184 5.47726 5.22084 5.45331C5.19742 5.4349 5.17204 5.41648 5.1447 5.39622C5.11932 5.37596 5.09004 5.35201 5.04708 5.32991C4.8948 5.23229 4.69761 5.12914 4.45356 5.04626C4.20757 4.9689 3.91666 4.9118 3.59257 4.91365C3.27043 4.91365 2.9151 4.97259 2.57148 5.11257C2.22591 5.25439 1.89206 5.46068 1.61287 5.77564C1.58749 5.80695 1.56211 5.83827 1.53478 5.86774L1.45473 5.98377C1.42544 6.02245 1.40397 6.06482 1.38054 6.10718C1.35906 6.14954 1.32978 6.19006 1.31416 6.23611C1.23021 6.41109 1.1853 6.60633 1.16187 6.80341C1.13649 7.00049 1.15016 7.20494 1.19506 7.40386C1.23997 7.60278 1.31221 7.79802 1.42349 7.97484C1.44692 8.02089 1.47816 8.06325 1.50939 8.10561C1.54063 8.14798 1.56797 8.19402 1.60701 8.23086L1.71244 8.35058L1.83934 8.46662C1.9682 8.57345 2.16344 8.68949 2.35477 8.75211C2.74524 8.88657 3.19038 8.86999 3.56133 8.71896C3.60819 8.70238 3.65505 8.68212 3.698 8.65818C3.7429 8.63607 3.78781 8.61397 3.82685 8.58634C3.86785 8.55872 3.91276 8.53661 3.9479 8.50346L4.00452 8.45741L4.0338 8.43531L4.04747 8.42426L4.05138 8.42058C4.05138 8.42058 4.026 8.44636 4.03966 8.43163L4.04747 8.42426C4.08652 8.38374 4.14119 8.33585 4.16657 8.30454C4.18804 8.27322 4.21538 8.25296 4.2388 8.21428C4.28957 8.14245 4.33447 8.06693 4.36571 7.98773C4.50237 7.67277 4.4848 7.32098 4.35985 7.04101C4.29737 6.90103 4.21147 6.77578 4.10995 6.67079L4.10604 6.66527H4.10409C4.12752 6.68369 4.10995 6.66527 4.11385 6.67079L4.10019 6.65974L4.0748 6.63764L4.026 6.59343C3.99671 6.56949 3.97914 6.56028 3.95571 6.54002C3.90495 6.50502 3.84638 6.47187 3.78976 6.44793C3.55938 6.34847 3.32314 6.33557 3.14353 6.37425C2.96 6.40741 2.82919 6.4774 2.7472 6.53265C2.70424 6.55844 2.67691 6.58423 2.65543 6.59896C2.63591 6.61554 2.6242 6.6229 2.6242 6.6229L2.59882 6.64317C2.47972 6.7371 2.30401 6.72052 2.20444 6.60817C2.11072 6.50134 2.12244 6.34478 2.22591 6.249C2.22591 6.249 2.24153 6.23611 2.26887 6.21033C2.29815 6.18454 2.33915 6.14402 2.40163 6.09981C2.52267 6.00956 2.71986 5.88984 3.00296 5.81985C3.2841 5.74801 3.65895 5.73881 4.04552 5.88247C4.14314 5.91931 4.2349 5.96536 4.33252 6.02245C4.37937 6.05377 4.43794 6.0906 4.47699 6.12192L4.52971 6.16428L4.55704 6.18454L4.57071 6.19559L4.59023 6.21401L4.59804 6.22138C4.75813 6.36873 4.90261 6.55107 5.01194 6.76105C5.23256 7.18099 5.29894 7.72619 5.11151 8.2456C5.06661 8.37637 5.00218 8.50162 4.92799 8.62318C4.89285 8.68396 4.83818 8.75027 4.79132 8.81289C4.74251 8.87368 4.70932 8.90499 4.66832 8.95288L4.66051 8.96209L4.63709 8.98603L4.61756 9.00445L4.57656 9.04129L4.49456 9.11312C4.44185 9.16285 4.37937 9.20153 4.3208 9.24758C4.26223 9.29362 4.1978 9.33046 4.13142 9.36914C4.067 9.40966 4.00062 9.44466 3.93033 9.47413C3.37781 9.73567 2.69448 9.80566 2.05801 9.62884C1.73782 9.53859 1.44692 9.40414 1.15602 9.18311L1.07792 9.12049L1.03887 9.08918L1.01935 9.07444L1.00959 9.06707L1.00373 9.06339L0.980303 9.04129L0.8124 8.87368C0.753829 8.82026 0.706972 8.7558 0.65621 8.69501C0.605449 8.63423 0.554687 8.57345 0.513687 8.5053C0.330165 8.24744 0.199356 7.95826 0.113452 7.65804C0.0255956 7.35966 -0.0134518 7.04654 0.00411953 6.73894C0.0197385 6.43135 0.0744047 6.12376 0.187642 5.83642C0.209118 5.76275 0.248165 5.6946 0.277451 5.62461C0.308689 5.55462 0.341879 5.48463 0.382879 5.42016C0.421926 5.35385 0.459021 5.28939 0.501973 5.22308L0.652305 5.02232C1.00764 4.57658 1.49573 4.21742 1.99749 3.98166C2.50315 3.74221 3.03419 3.62249 3.53009 3.59302C4.026 3.56355 4.4848 3.62433 4.87723 3.72564C5.26965 3.83246 5.59375 3.97797 5.8456 4.1198C6.10136 4.26346 6.33369 4.4366 6.40398 4.49922C6.5016 4.57842 6.55431 4.61895 6.55431 4.61895C6.88231 4.88233 6.92136 5.34833 6.64217 5.65776C6.36298 5.9672 5.86903 6.00404 5.54103 5.74065C5.53127 5.73328 5.5176 5.72223 5.50784 5.71302L5.51565 5.70934Z" fill="#BC8853"/>
<path d="M6.57007 2.83616C6.57007 2.83616 6.60521 2.86747 6.66964 2.92825C6.70088 2.95588 6.74969 3.00561 6.76921 3.01482C6.80045 3.03508 6.81412 3.05903 6.86878 3.0885C6.9625 3.15112 7.0855 3.21927 7.23973 3.27453C7.39397 3.3261 7.57944 3.36662 7.78444 3.3703C7.99139 3.37399 8.21787 3.34083 8.44044 3.25611C8.66496 3.1677 8.87972 3.04245 9.07105 2.83616C9.08472 2.81958 9.10034 2.80301 9.11596 2.78643L9.16672 2.7146C9.20381 2.66671 9.23115 2.61145 9.25848 2.55804C9.3151 2.44753 9.34438 2.32596 9.36391 2.20071C9.39905 1.95022 9.34634 1.67946 9.21162 1.44923C9.13939 1.33135 9.0691 1.23005 8.9461 1.12322C8.87777 1.06244 8.75282 0.983235 8.63372 0.942714C8.38968 0.852462 8.10658 0.857987 7.86644 0.950081C7.80592 0.970342 7.74735 0.999812 7.69463 1.03297C7.66925 1.05138 7.63802 1.06428 7.61459 1.08454L7.57749 1.11401L7.55797 1.12874L7.54821 1.13611H7.54626C7.54626 1.13611 7.57164 1.11217 7.55797 1.12506L7.55211 1.13058C7.52478 1.15821 7.48183 1.19505 7.46816 1.21347C7.45645 1.23189 7.44083 1.23926 7.42521 1.2632C7.39202 1.3074 7.36273 1.35345 7.34126 1.40318C7.25145 1.59842 7.25535 1.82313 7.33149 2.00179C7.36859 2.09204 7.4213 2.17309 7.48573 2.24124V2.24492H7.48964C7.46621 2.22282 7.48378 2.23939 7.47987 2.23571L7.48964 2.24492L7.50721 2.2615L7.54235 2.29465L7.5814 2.32596C7.61068 2.34622 7.64778 2.36832 7.68292 2.3849C7.82349 2.45121 7.97382 2.46042 8.08901 2.44016C8.20615 2.42174 8.29011 2.37938 8.34282 2.34438C8.39749 2.31123 8.42287 2.28728 8.42287 2.28728L8.43068 2.27992C8.54391 2.17861 8.72158 2.18414 8.82701 2.29097C8.93244 2.39595 8.92853 2.56172 8.8192 2.66302C8.8192 2.66302 8.80748 2.67408 8.78601 2.69434C8.76453 2.7146 8.73329 2.74591 8.68448 2.77906C8.59272 2.84905 8.44239 2.94299 8.22568 2.9964C8.01092 3.0535 7.72392 3.06271 7.42521 2.95404C7.35102 2.92641 7.27878 2.89142 7.20264 2.84721C7.16554 2.82327 7.11869 2.79196 7.08745 2.76985L7.05035 2.74038L7.03083 2.72565L7.02107 2.71828L6.99764 2.69802C6.87464 2.58751 6.76336 2.44753 6.67745 2.28728C6.5076 1.96864 6.45293 1.55053 6.5935 1.149C6.62669 1.04954 6.6755 0.951923 6.73407 0.857987C6.75945 0.811941 6.80436 0.756684 6.84145 0.708796C6.87855 0.660907 6.90002 0.640646 6.93126 0.605651L6.93712 0.600125L6.95859 0.579864L6.97421 0.565129L7.0035 0.537501L7.06402 0.482245C7.10307 0.443566 7.15188 0.414096 7.19678 0.3791C7.28854 0.312793 7.38811 0.252011 7.49354 0.204122C7.91525 0.00151568 8.43653 -0.0555824 8.92658 0.0770326C9.17453 0.145182 9.39515 0.244643 9.62553 0.417779L9.68214 0.461984L9.70948 0.484087L9.72314 0.495138L9.73095 0.500664L9.75633 0.524608L9.88519 0.649856C9.96719 0.736424 10.0472 0.828517 10.1136 0.927979C10.3909 1.32214 10.5334 1.80287 10.5139 2.27439C10.5041 2.51015 10.4631 2.74591 10.3772 2.96693C10.3342 3.07745 10.2874 3.18612 10.2288 3.28742C10.1995 3.33899 10.1702 3.38872 10.137 3.4403L10.0199 3.5987C9.75633 3.93576 9.38343 4.21388 9.00272 4.39623C8.6181 4.58042 8.21396 4.67619 7.83521 4.70014C7.45645 4.72592 7.10502 4.68172 6.80436 4.6062C6.50369 4.527 6.25379 4.41649 6.05855 4.30966C5.86136 4.20099 5.67003 4.05917 5.62513 4.02049C5.55484 3.96523 5.51775 3.93576 5.51775 3.93576C5.18584 3.67421 5.14094 3.21006 5.41817 2.89694C5.69541 2.58382 6.18741 2.54146 6.51931 2.80301C6.53493 2.8159 6.55055 2.82879 6.56421 2.84353L6.57007 2.83616Z" fill="#BC8853"/>
<path d="M6.56624 3.93027C6.56624 3.93027 6.52914 3.95974 6.45886 4.01499C6.41395 4.05183 6.22457 4.1955 6.02543 4.30417C5.83019 4.411 5.58029 4.52151 5.27963 4.60071C4.97896 4.67623 4.62754 4.72043 4.24878 4.69465C3.87002 4.6707 3.46588 4.57492 3.08126 4.39074C2.70055 4.20839 2.3296 3.93027 2.06408 3.5932L1.94498 3.4348C1.91179 3.38323 1.88446 3.3335 1.85322 3.28193C1.79465 3.18062 1.74779 3.07195 1.70484 2.96144C1.61894 2.74042 1.57989 2.50466 1.56818 2.2689C1.54865 1.79738 1.69118 1.31481 1.96841 0.922486C2.03479 0.823024 2.11484 0.730931 2.19684 0.644363L2.32569 0.519115L2.35303 0.495171L2.36084 0.489645L2.3745 0.478594L2.40184 0.456491L2.45846 0.412286C2.68884 0.23915 2.9114 0.139689 3.1574 0.0715394C3.64745 -0.0610756 4.16873 -0.00397746 4.59044 0.198629C4.69587 0.246518 4.79544 0.307299 4.8872 0.373607C4.9321 0.408603 4.97896 0.438073 5.01996 0.476752L5.08048 0.532008L5.10977 0.559636L5.12539 0.574371L5.14686 0.594632L5.15272 0.600157C5.18396 0.635153 5.20348 0.655414 5.24253 0.703303C5.27963 0.753033 5.32453 0.806448 5.34991 0.852494C5.40848 0.94643 5.45534 1.04405 5.49048 1.14351C5.63105 1.54504 5.57639 1.9613 5.40653 2.28179C5.32258 2.44203 5.21129 2.58017 5.08634 2.69253L5.06291 2.71279L5.05315 2.72016L5.03363 2.73489L4.99653 2.76436C4.96529 2.78646 4.92039 2.81778 4.88134 2.84172C4.8052 2.88592 4.73492 2.92092 4.65877 2.94855C4.36006 3.05722 4.07306 3.04801 3.8583 2.99091C3.64159 2.93566 3.49126 2.84356 3.3995 2.77357C3.35069 2.74042 3.3214 2.7091 3.29797 2.68884C3.2765 2.66858 3.26478 2.65753 3.26478 2.65753C3.1535 2.55623 3.15155 2.38862 3.25893 2.28363C3.36631 2.18049 3.54007 2.1768 3.65135 2.27626L3.65916 2.28363C3.65916 2.28363 3.68454 2.30573 3.73921 2.34073C3.79192 2.37388 3.87783 2.41809 3.99302 2.43651C4.10821 2.45861 4.25659 2.44756 4.39911 2.38125C4.43425 2.36467 4.46939 2.34257 4.50063 2.32231L4.53968 2.291L4.57482 2.25785L4.59239 2.24127L4.60215 2.23206C4.60215 2.23206 4.61582 2.21917 4.59239 2.24127L4.59434 2.23574C4.65877 2.16759 4.71149 2.08655 4.74858 1.9963C4.82472 1.81764 4.83058 1.59293 4.73882 1.39769C4.71734 1.34796 4.68806 1.30191 4.65487 1.25771C4.63925 1.23376 4.62558 1.2264 4.61192 1.20798C4.5963 1.18956 4.5553 1.15272 4.52796 1.12509L4.52211 1.11957C4.50844 1.10483 4.53773 1.1343 4.53382 1.13246H4.53187L4.52211 1.12325L4.50258 1.10852L4.46549 1.07905C4.44206 1.05878 4.41082 1.04589 4.38544 1.02747C4.33078 0.996161 4.27416 0.964849 4.21363 0.944588C3.97349 0.852494 3.6904 0.848811 3.44635 0.937221C3.32726 0.977742 3.20231 1.05694 3.13397 1.11772C3.00902 1.22271 2.94069 1.32586 2.86845 1.44374C2.73374 1.67581 2.68298 1.94473 2.71617 2.19522C2.73569 2.32047 2.76498 2.44203 2.8216 2.55255C2.84893 2.6078 2.87626 2.66122 2.91336 2.7091L2.96412 2.78094C2.97974 2.79751 2.99536 2.81409 3.00902 2.83067C3.1984 3.03696 3.41512 3.16221 3.63964 3.25062C3.86221 3.33534 4.09063 3.3685 4.29563 3.36481C4.50258 3.36113 4.68611 3.32245 4.84034 3.26903C4.99458 3.21378 5.11758 3.14563 5.21129 3.083C5.26401 3.05353 5.27963 3.02775 5.31086 3.00933C5.33039 3.00012 5.3792 2.95223 5.41043 2.92276C5.47486 2.86198 5.51001 2.83067 5.51001 2.83067C5.81848 2.54518 6.31243 2.5507 6.61505 2.84172C6.91766 3.13274 6.9118 3.59873 6.60333 3.88422C6.58771 3.89711 6.57014 3.91185 6.55647 3.9229L6.56624 3.93027Z" fill="#BC8853"/>
<path d="M6.04627 9.10789C6.90888 9.10789 7.60816 8.44818 7.60816 7.63439C7.60816 6.8206 6.90888 6.16089 6.04627 6.16089C5.18366 6.16089 4.48438 6.8206 4.48438 7.63439C4.48438 8.44818 5.18366 9.10789 6.04627 9.10789Z" fill="#BC8853"/>
<path d="M9.94892 7.63439C10.3802 7.63439 10.7299 7.30453 10.7299 6.89764C10.7299 6.49074 10.3802 6.16089 9.94892 6.16089C9.51761 6.16089 9.16797 6.49074 9.16797 6.89764C9.16797 7.30453 9.51761 7.63439 9.94892 7.63439Z" fill="#BC8853"/>
<path d="M2.14032 7.63439C2.57163 7.63439 2.92127 7.30453 2.92127 6.89764C2.92127 6.49074 2.57163 6.16089 2.14032 6.16089C1.70902 6.16089 1.35938 6.49074 1.35938 6.89764C1.35938 7.30453 1.70902 7.63439 2.14032 7.63439Z" fill="#BC8853"/>
</svg>
