<svg width="50" height="50" viewBox="0 0 50 50" fill="none" xmlns="http://www.w3.org/2000/svg">
<path d="M1.48438 25C1.48438 35.2344 8.04687 43.9062 17.1094 47.1094V2.89062C8.04687 6.09375 1.48438 14.7656 1.48438 25Z" fill="#428BC1"/>
<path d="M48.3594 25C48.3594 14.7656 41.875 6.09375 32.7344 2.89062V47.1094C41.875 43.9062 48.3594 35.2344 48.3594 25Z" fill="#ED4C5C"/>
<path d="M17.1094 47.1094C19.5312 47.9688 22.1875 48.4375 24.9219 48.4375C27.6562 48.4375 30.3125 47.9688 32.7344 47.1094V2.89062C30.3125 2.03125 27.7344 1.5625 24.9219 1.5625C22.1094 1.5625 19.5312 2.03125 17.1094 2.89062V47.1094Z" fill="white"/>
</svg>
