<svg width="24" height="24" viewBox="0 0 24 24" fill="none" xmlns="http://www.w3.org/2000/svg">
<g clip-path="url(#clip0_526_399)">
<path d="M23.9642 23.7816C23.8514 23.17 23.8411 22.4375 23.5303 21.8897C23.3979 21.6565 23.0697 21.3442 22.8286 21.5696C22.4121 21.1913 21.7864 20.9592 21.2858 20.7436C20.8272 20.5456 20.3318 20.0507 19.8702 19.955C19.8589 19.4666 19.2916 19.4677 18.9787 19.2785C18.3797 18.9167 17.8165 18.3766 17.2502 17.9487C16.5875 17.4483 16.2213 16.4584 15.4715 16.0668C15.5956 15.9843 15.7361 15.9128 15.8387 15.805C16.0469 15.585 16.1793 15.2705 16.2562 14.9614C16.4624 14.131 16.5065 13.2532 16.7619 12.4294C17.001 11.6595 17.281 11.0028 17.2041 10.1834C17.1548 9.65984 17.4246 9.32217 17.4595 8.85251C17.9929 8.72822 18.5592 8.57973 19.0105 8.31355C19.4219 8.07157 20.1738 7.32254 19.7604 6.77918C19.5275 6.47341 19.1418 6.513 18.8197 6.5097C18.3407 6.5053 17.9026 6.5581 17.4277 6.60649C17.4133 6.60759 17.3979 6.60979 17.3836 6.61089C17.3836 6.26332 17.402 5.45159 17.4092 4.99513C17.4092 4.94783 17.3846 4.90714 17.3477 4.88624C17.4359 3.71814 17.52 2.14087 17.5641 1.34343C17.5795 1.06626 17.679 0.884772 17.481 0.679089C17.1261 0.30952 16.3311 0.217128 15.7884 0.148933C14.142 -0.0578493 12.5992 -0.036951 10.9476 0.114836C10.4747 0.157733 8.86726 0.375515 8.75031 1.06956C8.71749 1.26094 8.76878 2.9647 8.78416 4.63216C8.74621 4.65416 8.72056 4.69595 8.72159 4.74545C8.72467 5.06992 8.72877 5.58908 8.7298 5.94215C8.31537 5.85526 7.89683 5.78156 7.48138 5.79256C6.82793 5.81016 6.11602 5.95095 6.05857 6.81218C5.98779 7.86919 7.37059 8.63363 8.17893 8.9878C8.16765 9.05049 8.16149 9.11759 8.15739 9.19018C8.12969 9.79513 8.35742 10.4375 8.67132 10.9412C8.91136 11.3273 9.29707 11.5616 9.5566 11.8817C9.56789 11.9916 9.57302 12.1071 9.57096 12.2061C9.5802 12.1764 9.5884 12.1434 9.59661 12.1137C9.62226 12.1786 9.61815 12.2677 9.64995 12.3271C9.65303 12.2985 9.66637 12.271 9.67047 12.2424C9.73817 12.447 9.81511 12.6538 9.90948 12.8518C10.0192 13.515 10.0028 14.2476 9.82639 14.8547C9.74843 15.1253 9.66534 15.1594 9.46941 15.3376C9.29502 15.4971 9.11448 15.6224 8.93188 15.7621C8.44154 16.1383 7.92761 16.5739 7.49163 17.0182C6.75407 17.7717 6.00933 18.6384 5.14867 19.2114C4.55575 19.6063 3.8941 19.9528 3.26219 20.2773C2.67132 20.5808 2.07225 21.0021 1.46394 21.2166C1.08541 21.3508 0.827932 21.3024 0.634053 21.7104C0.318102 22.3759 0.160126 23.2195 -0.00195312 23.9982H23.998C23.9868 23.9213 23.9745 23.8487 23.9621 23.7805L23.9642 23.7816ZM11.5251 7.40063C10.3721 7.02446 9.22834 6.61309 8.04045 6.39201C7.51728 6.31062 6.69868 6.14673 6.39401 6.73628C6.83614 5.50109 10.6399 6.94637 11.5805 7.20045C12.7356 7.56671 13.9194 7.80759 15.1001 8.06497C15.6828 8.20466 16.2819 8.24756 16.8809 8.26626C17.6164 8.29155 18.4002 8.26076 19.0198 7.7834C19.4414 7.52052 19.6558 6.90127 19.0033 6.80778C19.6896 6.85397 19.5009 7.55132 19.0649 7.84939C18.4504 8.37625 17.6349 8.44334 16.8789 8.43674C16.2726 8.43784 15.6602 8.39935 15.0611 8.26846C13.8753 8.02318 12.6823 7.7812 11.5241 7.39843L11.5251 7.40063Z" fill="#BC8853"/>
</g>
<defs>
<clipPath id="clip0_526_399">
<rect width="24" height="24" fill="white"/>
</clipPath>
</defs>
</svg>
