<svg width="190" height="75" viewBox="0 0 190 75" fill="none" xmlns="http://www.w3.org/2000/svg">
<path d="M181.049 53.5964C180.475 53.5964 180.01 53.1576 180.01 52.6158V26.1411C180.01 25.5993 180.475 25.1605 181.049 25.1605C181.623 25.1605 182.089 25.5993 182.089 26.1411V52.6158C182.089 53.1576 181.623 53.5964 181.049 53.5964Z" fill="#BC8853"/>
<path d="M180.007 52.6159H176.369C176.081 52.6159 175.85 52.3977 175.85 52.1256C175.85 51.8535 176.081 51.6353 176.369 51.6353H180.007V52.6159Z" fill="#BC8853"/>
<path d="M180.003 49.6742H176.885V50.6548H180.003V49.6742Z" fill="#BC8853"/>
<path d="M180.007 49.6741H176.889C176.315 49.6741 175.85 49.2353 175.85 48.6936C175.85 48.1518 176.315 47.713 176.889 47.713H180.007V49.6741Z" fill="#BC8853"/>
<path d="M180.006 46.7325H178.447C178.159 46.7325 177.928 46.5143 177.928 46.2422C177.928 45.9701 178.159 45.7519 178.447 45.7519H180.006V46.7325Z" fill="#BC8853"/>
<path d="M180.356 21.1451C180.356 21.1451 180.426 21.0887 180.556 20.9858C180.649 20.9024 180.961 20.6744 181.299 20.4808C181.634 20.292 182.068 20.0984 182.59 19.9562C183.112 19.8214 183.723 19.7405 184.383 19.7797C185.041 19.8189 185.75 19.9783 186.423 20.2969C187.091 20.6107 187.74 21.0887 188.213 21.682L188.413 21.9491C188.47 22.0374 188.52 22.1232 188.574 22.2114C188.629 22.2972 188.673 22.3904 188.715 22.4835C188.756 22.5767 188.806 22.6674 188.834 22.7655C188.985 23.1479 189.058 23.5572 189.078 23.9666C189.102 24.376 189.047 24.7927 188.933 25.1899C188.819 25.587 188.642 25.9743 188.4 26.3175C188.346 26.4057 188.278 26.4891 188.211 26.57C188.143 26.6509 188.081 26.7342 188.003 26.8078L187.779 27.0308L187.748 27.0602L187.743 27.0652L187.73 27.075L187.704 27.0946L187.652 27.1362L187.548 27.2196C187.161 27.5113 186.774 27.6903 186.348 27.8128C185.5 28.0482 184.594 27.9574 183.856 27.6069C183.762 27.5652 183.671 27.5187 183.588 27.4672C183.502 27.4157 183.414 27.3667 183.336 27.3054C183.258 27.2466 183.172 27.1951 183.105 27.1264L182.996 27.0308L182.941 26.9818L182.915 26.9573L182.884 26.9254L182.873 26.9132C182.819 26.8494 182.772 26.8078 182.71 26.7269C182.647 26.6435 182.575 26.5553 182.528 26.4744C182.426 26.3126 182.343 26.1434 182.284 25.9718C182.034 25.2781 182.122 24.5525 182.416 23.996C182.562 23.7166 182.751 23.4739 182.967 23.2778L182.977 23.268L183.003 23.2435L183.022 23.2288L183.058 23.2018L183.128 23.1454C183.183 23.1037 183.258 23.0547 183.32 23.013C183.45 22.9371 183.572 22.8758 183.702 22.8267C184.217 22.6355 184.716 22.6478 185.09 22.7434C185.467 22.8365 185.729 22.9959 185.89 23.116C185.973 23.1724 186.028 23.2288 186.067 23.2631C186.106 23.2974 186.124 23.3146 186.124 23.3146C186.272 23.4494 186.277 23.6725 186.134 23.8122C185.999 23.947 185.778 23.9568 185.628 23.8416L185.594 23.8146C185.594 23.8146 185.581 23.8048 185.552 23.7828C185.524 23.7632 185.487 23.7264 185.43 23.6945C185.321 23.621 185.144 23.5303 184.903 23.4837C184.661 23.4347 184.347 23.4494 184.043 23.5818C183.967 23.6161 183.892 23.6602 183.822 23.7043C183.791 23.7288 183.767 23.7411 183.728 23.7754L183.663 23.8343L183.63 23.8637L183.611 23.8784C183.611 23.8784 183.593 23.8955 183.624 23.8661H183.622L183.617 23.8759C183.481 24.0157 183.367 24.1823 183.284 24.3686C183.118 24.7413 183.094 25.2095 183.276 25.6287C183.32 25.7341 183.38 25.8346 183.445 25.9302C183.476 25.9816 183.51 26.0086 183.541 26.0503C183.575 26.092 183.648 26.1581 183.7 26.2096L183.71 26.2194C183.728 26.239 183.689 26.1998 183.695 26.2047L183.7 26.2096L183.718 26.2243L183.757 26.2537L183.832 26.315C183.879 26.3592 183.941 26.3861 183.993 26.4253C184.045 26.4646 184.108 26.4915 184.165 26.5209C184.222 26.5528 184.284 26.5798 184.347 26.6018C184.843 26.8029 185.433 26.8249 185.953 26.646C186.207 26.5626 186.467 26.4106 186.639 26.266L186.807 26.1116L186.948 25.9522C187 25.9032 187.034 25.8419 187.075 25.7855C187.117 25.7292 187.158 25.6728 187.192 25.6115C187.34 25.3762 187.436 25.1139 187.496 24.8516C187.556 24.5868 187.574 24.3172 187.54 24.0524C187.509 23.7901 187.449 23.5327 187.338 23.2974C187.317 23.2361 187.278 23.1822 187.249 23.1258C187.221 23.0694 187.189 23.013 187.15 22.9616L187.044 22.8071C187.008 22.7655 186.974 22.7262 186.94 22.6846C186.566 22.2654 186.121 21.9908 185.664 21.8021C185.204 21.6158 184.734 21.5373 184.305 21.5373C183.874 21.5373 183.487 21.6109 183.159 21.7138C182.834 21.8241 182.572 21.9614 182.369 22.0913C182.315 22.1207 182.273 22.1526 182.239 22.1796C182.203 22.2065 182.169 22.2311 182.138 22.2556C182.084 22.2874 181.995 22.3708 181.935 22.4247C181.813 22.535 181.746 22.5963 181.746 22.5963C181.33 22.9714 180.673 22.9567 180.275 22.5669C179.877 22.1771 179.893 21.5545 180.306 21.1794C180.319 21.1647 180.335 21.1525 180.35 21.1402L180.356 21.1451Z" fill="#BC8853"/>
<path d="M180.341 22.5986C180.341 22.5986 180.276 22.5398 180.151 22.427C180.091 22.3731 180.003 22.2897 179.948 22.2578C179.917 22.2333 179.884 22.2088 179.847 22.1819C179.813 22.1549 179.774 22.123 179.717 22.0936C179.515 21.9637 179.252 21.8264 178.927 21.7161C178.6 21.6131 178.213 21.5371 177.781 21.5396C177.353 21.5396 176.88 21.618 176.422 21.8043C175.962 21.9931 175.518 22.2676 175.147 22.6868C175.113 22.7285 175.079 22.7702 175.043 22.8094L174.936 22.9638C174.897 23.0153 174.869 23.0717 174.837 23.1281C174.809 23.1845 174.77 23.2384 174.749 23.2997C174.637 23.5326 174.578 23.7924 174.546 24.0547C174.513 24.317 174.531 24.5891 174.591 24.8538C174.65 25.1186 174.746 25.3784 174.895 25.6138C174.926 25.675 174.967 25.7314 175.009 25.7878C175.05 25.8442 175.087 25.9055 175.139 25.9545L175.279 26.1138L175.448 26.2683C175.619 26.4105 175.879 26.5649 176.134 26.6482C176.654 26.8272 177.246 26.8051 177.74 26.6041C177.802 26.5821 177.865 26.5551 177.922 26.5232C177.981 26.4938 178.041 26.4644 178.093 26.4276C178.148 26.3908 178.208 26.3614 178.254 26.3173L178.33 26.256L178.369 26.2266L178.387 26.2119L178.392 26.207C178.392 26.207 178.358 26.2413 178.376 26.2217L178.387 26.2119C178.439 26.158 178.512 26.0942 178.545 26.0526C178.574 26.0109 178.61 25.9839 178.641 25.9324C178.709 25.8368 178.769 25.7363 178.81 25.6309C178.992 25.2117 178.969 24.7435 178.803 24.3709C178.719 24.1846 178.605 24.0179 178.47 23.8782L178.465 23.8708H178.462C178.493 23.8954 178.47 23.8708 178.475 23.8782L178.457 23.8635L178.423 23.8341L178.358 23.7752C178.319 23.7434 178.296 23.7311 178.265 23.7042C178.197 23.6576 178.119 23.6134 178.044 23.5816C177.737 23.4492 177.423 23.432 177.184 23.4835C176.939 23.5277 176.765 23.6208 176.656 23.6943C176.599 23.7287 176.563 23.763 176.534 23.7826C176.508 23.8047 176.493 23.8145 176.493 23.8145L176.459 23.8414C176.3 23.9664 176.066 23.9444 175.934 23.7949C175.809 23.6527 175.825 23.4443 175.962 23.3168C175.962 23.3168 175.983 23.2997 176.02 23.2654C176.059 23.231 176.113 23.1771 176.196 23.1183C176.357 22.9982 176.62 22.8388 176.997 22.7457C177.371 22.6501 177.87 22.6378 178.384 22.829C178.514 22.878 178.636 22.9393 178.766 23.0153C178.829 23.057 178.906 23.106 178.958 23.1477L179.029 23.2041L179.065 23.231L179.083 23.2457L179.109 23.2703L179.12 23.2801C179.333 23.4762 179.525 23.7189 179.67 23.9983C179.964 24.5572 180.052 25.2828 179.803 25.9741C179.743 26.1482 179.657 26.3149 179.559 26.4766C179.512 26.5575 179.439 26.6458 179.377 26.7291C179.312 26.81 179.268 26.8517 179.213 26.9154L179.203 26.9277L179.172 26.9596L179.146 26.9841L179.091 27.0331L178.982 27.1287C178.912 27.1949 178.829 27.2464 178.751 27.3077C178.673 27.3689 178.587 27.418 178.499 27.4694C178.413 27.5234 178.324 27.57 178.231 27.6092C177.496 27.9573 176.586 28.0504 175.739 27.8151C175.313 27.695 174.926 27.516 174.539 27.2219L174.435 27.1385L174.383 27.0968L174.357 27.0772L174.344 27.0674L174.336 27.0625L174.305 27.0331L174.081 26.81C174.003 26.7389 173.941 26.6531 173.873 26.5722C173.806 26.4914 173.738 26.4105 173.684 26.3198C173.439 25.9766 173.265 25.5917 173.151 25.1921C173.034 24.795 172.982 24.3783 173.005 23.9689C173.026 23.5595 173.099 23.1501 173.25 22.7677C173.278 22.6697 173.33 22.579 173.369 22.4858C173.411 22.3927 173.455 22.2995 173.51 22.2137C173.562 22.1255 173.611 22.0397 173.668 21.9514L173.868 21.6842C174.341 21.091 174.991 20.613 175.658 20.2992C176.331 19.9805 177.038 19.8212 177.698 19.782C178.358 19.7427 178.969 19.8236 179.491 19.9585C180.013 20.1006 180.445 20.2943 180.78 20.4831C181.12 20.6743 181.43 20.9047 181.523 20.988C181.653 21.0934 181.723 21.1474 181.723 21.1474C182.16 21.4979 182.212 22.1181 181.84 22.5299C181.469 22.9418 180.811 22.9908 180.375 22.6403C180.362 22.6305 180.343 22.6157 180.33 22.6035L180.341 22.5986Z" fill="#BC8853"/>
<path d="M181.746 18.7747C181.746 18.7747 181.793 18.8163 181.878 18.8972C181.92 18.934 181.985 19.0002 182.011 19.0125C182.052 19.0394 182.071 19.0713 182.143 19.1105C182.268 19.1939 182.432 19.2846 182.637 19.3581C182.842 19.4267 183.089 19.4807 183.362 19.4856C183.637 19.4905 183.939 19.4463 184.235 19.3336C184.534 19.2159 184.82 19.0492 185.074 18.7747C185.093 18.7526 185.113 18.7305 185.134 18.7085L185.202 18.6129C185.251 18.5491 185.287 18.4756 185.324 18.4045C185.399 18.2574 185.438 18.0956 185.464 17.9289C185.511 17.5956 185.441 17.2352 185.261 16.9288C185.165 16.7719 185.072 16.6371 184.908 16.4949C184.817 16.414 184.651 16.3086 184.492 16.2547C184.168 16.1345 183.791 16.1419 183.471 16.2645C183.391 16.2914 183.313 16.3307 183.242 16.3748C183.209 16.3993 183.167 16.4165 183.136 16.4434L183.087 16.4826L183.061 16.5023L183.048 16.5121H183.045C183.045 16.5121 183.079 16.4802 183.061 16.4973L183.053 16.5047C183.016 16.5415 182.959 16.5905 182.941 16.615C182.925 16.6395 182.905 16.6493 182.884 16.6812C182.84 16.74 182.801 16.8013 182.772 16.8675C182.653 17.1274 182.658 17.4264 182.759 17.6642C182.809 17.7843 182.879 17.8922 182.964 17.9829V17.9878H182.97C182.938 17.9584 182.962 17.9804 182.957 17.9755L182.97 17.9878L182.993 18.0098L183.04 18.054L183.092 18.0956C183.131 18.1226 183.18 18.152 183.227 18.1741C183.414 18.2623 183.614 18.2746 183.767 18.2476C183.923 18.2231 184.035 18.1667 184.105 18.1202C184.178 18.076 184.212 18.0442 184.212 18.0442L184.222 18.0344C184.373 17.8995 184.609 17.9069 184.75 18.0491C184.89 18.1888 184.885 18.4094 184.739 18.5442C184.739 18.5442 184.724 18.5589 184.695 18.5859C184.666 18.6129 184.625 18.6546 184.56 18.6987C184.438 18.7918 184.238 18.9168 183.949 18.9879C183.663 19.0639 183.281 19.0762 182.884 18.9316C182.785 18.8948 182.689 18.8482 182.588 18.7894C182.538 18.7575 182.476 18.7158 182.434 18.6864L182.385 18.6472L182.359 18.6276L182.346 18.6178L182.315 18.5908C182.151 18.4437 182.003 18.2574 181.889 18.0442C181.663 17.6201 181.59 17.0636 181.777 16.5292C181.821 16.3968 181.886 16.2669 181.964 16.1419C181.998 16.0806 182.058 16.0071 182.107 15.9433C182.156 15.8796 182.185 15.8526 182.227 15.8061L182.234 15.7987L182.263 15.7717L182.284 15.7521L182.323 15.7154L182.403 15.6418C182.455 15.5903 182.52 15.5511 182.58 15.5045C182.702 15.4163 182.835 15.3354 182.975 15.2717C183.536 15.002 184.23 14.926 184.882 15.1025C185.212 15.1932 185.506 15.3256 185.812 15.556L185.888 15.6149L185.924 15.6443L185.942 15.659L185.953 15.6663L185.986 15.6982L186.158 15.8649C186.267 15.9801 186.374 16.1027 186.462 16.2351C186.831 16.7596 187.021 17.3995 186.995 18.027C186.982 18.3408 186.927 18.6546 186.813 18.9487C186.756 19.0958 186.693 19.2404 186.615 19.3753C186.576 19.4439 186.537 19.5101 186.493 19.5787L186.337 19.7895C185.986 20.2381 185.49 20.6083 184.983 20.851C184.472 21.0961 183.934 21.2236 183.43 21.2555C182.925 21.2898 182.458 21.2309 182.058 21.1304C181.657 21.025 181.325 20.8779 181.065 20.7358C180.803 20.5911 180.548 20.4024 180.488 20.3509C180.395 20.2774 180.345 20.2381 180.345 20.2381C179.904 19.89 179.844 19.2723 180.213 18.8556C180.582 18.4388 181.237 18.3825 181.678 18.7305C181.699 18.7477 181.72 18.7649 181.738 18.7845L181.746 18.7747Z" fill="#BC8853"/>
<path d="M181.74 20.2308C181.74 20.2308 181.691 20.27 181.597 20.3436C181.538 20.3926 181.286 20.5838 181.02 20.7284C180.761 20.8706 180.428 21.0177 180.028 21.1231C179.628 21.2236 179.16 21.2824 178.656 21.2481C178.152 21.2162 177.614 21.0888 177.102 20.8436C176.595 20.601 176.102 20.2308 175.748 19.7822L175.59 19.5714C175.546 19.5027 175.509 19.4366 175.468 19.3679C175.39 19.2331 175.327 19.0885 175.27 18.9414C175.156 18.6472 175.104 18.3334 175.088 18.0197C175.062 17.3921 175.252 16.7499 175.621 16.2277C175.709 16.0953 175.816 15.9728 175.925 15.8576L176.096 15.6909L176.133 15.659L176.143 15.6516L176.161 15.6369L176.198 15.6075L176.273 15.5487C176.58 15.3183 176.876 15.1859 177.203 15.0952C177.856 14.9187 178.549 14.9947 179.111 15.2643C179.251 15.3281 179.383 15.409 179.506 15.4972C179.565 15.5438 179.628 15.583 179.682 15.6345L179.763 15.708L179.802 15.7448L179.823 15.7644L179.851 15.7914L179.859 15.7987C179.901 15.8453 179.927 15.8723 179.979 15.936C180.028 16.0022 180.088 16.0733 180.121 16.1346C180.199 16.2596 180.262 16.3895 180.309 16.5219C180.496 17.0563 180.423 17.6103 180.197 18.0368C180.085 18.2501 179.937 18.4339 179.771 18.5835L179.739 18.6104L179.726 18.6202L179.7 18.6399L179.651 18.6791C179.61 18.7085 179.55 18.7502 179.498 18.782C179.396 18.8409 179.303 18.8874 179.202 18.9242C178.804 19.0688 178.422 19.0566 178.136 18.9806C177.848 18.9071 177.648 18.7845 177.526 18.6913C177.461 18.6472 177.422 18.6055 177.39 18.5786C177.362 18.5516 177.346 18.5369 177.346 18.5369C177.198 18.4021 177.196 18.179 177.339 18.0393C177.481 17.902 177.713 17.8971 177.861 18.0295L177.871 18.0393C177.871 18.0393 177.905 18.0687 177.978 18.1153C178.048 18.1594 178.162 18.2182 178.316 18.2427C178.469 18.2722 178.666 18.2574 178.856 18.1692C178.903 18.1471 178.95 18.1177 178.991 18.0908L179.043 18.0491L179.09 18.005L179.113 17.9829L179.126 17.9706C179.126 17.9706 179.144 17.9535 179.113 17.9829L179.116 17.9755C179.202 17.8848 179.272 17.777 179.321 17.6569C179.422 17.4191 179.43 17.12 179.308 16.8602C179.28 16.794 179.241 16.7327 179.196 16.6739C179.176 16.642 179.157 16.6322 179.139 16.6077C179.118 16.5832 179.064 16.5341 179.028 16.4974L179.02 16.49C179.002 16.4704 179.04 16.5096 179.035 16.5072H179.033L179.02 16.4949L178.994 16.4753L178.944 16.4361C178.913 16.4091 178.872 16.392 178.838 16.3674C178.765 16.3258 178.69 16.2841 178.609 16.2571C178.29 16.1346 177.913 16.1297 177.588 16.2473C177.429 16.3013 177.263 16.4067 177.172 16.4876C177.006 16.6273 176.915 16.7646 176.819 16.9215C176.64 17.2303 176.572 17.5882 176.616 17.9216C176.642 18.0883 176.681 18.2501 176.756 18.3972C176.793 18.4707 176.829 18.5418 176.879 18.6055L176.946 18.7011C176.967 18.7232 176.988 18.7453 177.006 18.7673C177.258 19.0419 177.546 19.2086 177.845 19.3262C178.141 19.439 178.445 19.4831 178.718 19.4782C178.994 19.4733 179.238 19.4218 179.443 19.3508C179.649 19.2772 179.812 19.1865 179.937 19.1032C180.007 19.0639 180.028 19.0296 180.069 19.0051C180.095 18.9929 180.16 18.9291 180.202 18.8899C180.288 18.809 180.335 18.7673 180.335 18.7673C180.745 18.3874 181.402 18.3947 181.805 18.782C182.208 19.1694 182.2 19.7895 181.79 20.1695C181.769 20.1867 181.745 20.2063 181.727 20.221L181.74 20.2308Z" fill="#BC8853"/>
<path d="M181.047 27.1216C182.196 27.1216 183.126 26.2436 183.126 25.1605C183.126 24.0774 182.196 23.1994 181.047 23.1994C179.899 23.1994 178.969 24.0774 178.969 25.1605C178.969 26.2436 179.899 27.1216 181.047 27.1216Z" fill="#BC8853"/>
<path d="M186.242 25.1605C186.817 25.1605 187.282 24.7215 187.282 24.1799C187.282 23.6384 186.817 23.1994 186.242 23.1994C185.668 23.1994 185.203 23.6384 185.203 24.1799C185.203 24.7215 185.668 25.1605 186.242 25.1605Z" fill="#BC8853"/>
<path d="M175.848 25.1605C176.422 25.1605 176.887 24.7215 176.887 24.1799C176.887 23.6384 176.422 23.1994 175.848 23.1994C175.274 23.1994 174.809 23.6384 174.809 24.1799C174.809 24.7215 175.274 25.1605 175.848 25.1605Z" fill="#BC8853"/>
<path d="M15.064 14.8V54H6.664V14.8H15.064ZM29.848 51.592L31.192 54H14.896V51.592H29.848ZM33.936 42.52L31.36 54H20.384L22.4 51.592C24.2667 51.592 25.9093 51.2373 27.328 50.528C28.7467 49.7813 29.96 48.736 30.968 47.392C31.976 46.0107 32.7787 44.3867 33.376 42.52H33.936ZM6.832 49.912V54H2.352V53.44C2.352 53.44 2.464 53.44 2.688 53.44C2.94933 53.44 3.08 53.44 3.08 53.44C4.05067 53.44 4.872 53.104 5.544 52.432C6.25333 51.7227 6.62667 50.8827 6.664 49.912H6.832ZM6.832 18.888H6.664C6.62667 17.9173 6.25333 17.096 5.544 16.424C4.872 15.7147 4.05067 15.36 3.08 15.36C3.08 15.36 2.94933 15.36 2.688 15.36C2.464 15.36 2.352 15.36 2.352 15.36V14.8H6.832V18.888ZM14.896 18.888V14.8H19.376V15.36C19.3387 15.36 19.208 15.36 18.984 15.36C18.76 15.36 18.648 15.36 18.648 15.36C17.6773 15.36 16.8373 15.7147 16.128 16.424C15.456 17.096 15.1013 17.9173 15.064 18.888H14.896ZM78.0505 45.968L78.4025 50.8C77.9972 51.4827 77.4318 52.1013 76.7065 52.656C75.9812 53.1893 75.0958 53.616 74.0505 53.936C73.0052 54.256 71.7892 54.416 70.4025 54.416C68.0132 54.3947 65.9545 53.9893 64.2265 53.2C62.4985 52.4107 61.1652 51.28 60.2265 49.808C59.3092 48.3147 58.8505 46.5013 58.8505 44.368C58.8505 42.2773 59.3092 40.496 60.2265 39.024C61.1438 37.5307 62.4665 36.3893 64.1945 35.6C65.9225 34.7893 67.9918 34.384 70.4025 34.384C71.8532 34.384 73.1972 34.5227 74.4345 34.8C75.6932 35.0773 76.7385 35.4293 77.5705 35.856L77.6025 40.944H77.3465C76.8132 38.9813 75.9705 37.6053 74.8185 36.816C73.6665 36.0267 72.3012 35.632 70.7225 35.632C69.1652 35.632 67.8638 35.9947 66.8185 36.72C65.7945 37.4453 65.0158 38.4587 64.4825 39.76C63.9705 41.0613 63.7145 42.5867 63.7145 44.336C63.7145 46.1067 63.9705 47.6427 64.4825 48.944C65.0158 50.2453 65.7838 51.2587 66.7865 51.984C67.7892 52.7093 68.9945 53.0933 70.4025 53.136C71.9172 53.136 73.1652 52.9013 74.1465 52.432C75.1492 51.9627 75.9385 51.2053 76.5145 50.16C77.1118 49.1147 77.5385 47.7173 77.7945 45.968H78.0505ZM93.7503 41.904L100.918 51.856C101.324 52.4533 101.75 52.912 102.198 53.232C102.646 53.5307 103.169 53.6907 103.766 53.712V54H101.302C101.089 54 100.737 53.9893 100.246 53.968C99.7556 53.9467 99.1903 53.872 98.5503 53.744C97.9316 53.5947 97.3023 53.3493 96.6623 53.008C96.0223 52.6667 95.4569 52.176 94.9663 51.536C94.8596 51.3867 94.6783 51.1307 94.4223 50.768C94.1663 50.4053 93.8569 49.9787 93.4943 49.488C93.1529 48.9973 92.7903 48.496 92.4063 47.984C92.0436 47.472 91.7023 46.992 91.3823 46.544C91.0623 46.096 90.8063 45.7333 90.6143 45.456C90.4223 45.1787 90.3263 45.04 90.3263 45.04L93.7503 41.904ZM100.534 34.992L92.1823 44.848L90.3263 45.04L97.9103 34.992H100.534ZM102.518 34.768V35.088H102.39C101.772 35.088 101.196 35.2053 100.662 35.44C100.129 35.6747 99.6916 35.9947 99.3503 36.4L96.8863 36.336C97.1209 36.0373 97.1636 35.76 97.0143 35.504C96.8649 35.2267 96.6089 35.088 96.2463 35.088H95.9903V34.768H102.39H102.518ZM89.3983 34.768V54H84.7903V34.768H89.3983ZM84.8543 51.984V54H82.6783V53.68C82.6783 53.68 82.7209 53.68 82.8063 53.68C82.9129 53.68 82.9769 53.68 82.9983 53.68C83.4889 53.68 83.9049 53.52 84.2463 53.2C84.5876 52.8587 84.7689 52.4533 84.7903 51.984H84.8543ZM89.3023 51.984H89.3983C89.3983 52.4533 89.5689 52.8587 89.9103 53.2C90.2516 53.52 90.6676 53.68 91.1583 53.68C91.1796 53.68 91.2436 53.68 91.3503 53.68C91.4569 53.68 91.5103 53.68 91.5103 53.68V54H89.3023V51.984ZM89.3023 36.816V34.768H91.5103V35.088C91.4889 35.088 91.4249 35.088 91.3183 35.088C91.2329 35.088 91.1796 35.088 91.1583 35.088C90.6676 35.088 90.2516 35.2587 89.9103 35.6C89.5689 35.92 89.3983 36.3253 89.3983 36.816H89.3023ZM84.8543 36.816H84.7903C84.7689 36.3253 84.5876 35.92 84.2463 35.6C83.9049 35.2587 83.4889 35.088 82.9983 35.088C82.9983 35.088 82.9449 35.088 82.8383 35.088C82.7316 35.088 82.6676 35.088 82.6463 35.088V34.768H84.8543V36.816ZM129.042 31.152C131.602 31.152 133.82 31.632 135.698 32.592C137.596 33.5307 139.058 34.864 140.082 36.592C141.127 38.32 141.649 40.3893 141.649 42.8C141.649 45.1893 141.127 47.2587 140.082 49.008C139.058 50.736 137.596 52.08 135.698 53.04C133.82 53.9787 131.602 54.448 129.042 54.448C126.481 54.448 124.252 53.9787 122.353 53.04C120.476 52.08 119.025 50.736 118.001 49.008C116.977 47.28 116.465 45.2107 116.465 42.8C116.465 40.4107 116.977 38.352 118.001 36.624C119.025 34.8747 120.476 33.5307 122.353 32.592C124.252 31.632 126.481 31.152 129.042 31.152ZM129.042 53.104C130.556 53.104 131.857 52.688 132.945 51.856C134.033 51.0027 134.876 49.808 135.473 48.272C136.071 46.736 136.369 44.912 136.369 42.8C136.369 40.688 136.071 38.864 135.473 37.328C134.876 35.792 134.033 34.608 132.945 33.776C131.857 32.9227 130.556 32.496 129.042 32.496C127.548 32.496 126.247 32.9227 125.137 33.776C124.049 34.608 123.207 35.792 122.609 37.328C122.012 38.864 121.713 40.688 121.713 42.8C121.713 44.912 122.012 46.736 122.609 48.272C123.207 49.808 124.049 51.0027 125.137 51.856C126.247 52.688 127.548 53.104 129.042 53.104ZM152.698 31.6V45.68C152.698 47.1947 152.943 48.5067 153.434 49.616C153.946 50.7253 154.66 51.5787 155.578 52.176C156.516 52.7733 157.626 53.072 158.906 53.072C160.207 53.072 161.327 52.7947 162.266 52.24C163.226 51.664 163.962 50.8533 164.474 49.808C164.986 48.7627 165.242 47.5253 165.242 46.096V31.6H167.546V45.904C167.546 47.6533 167.172 49.168 166.426 50.448C165.7 51.728 164.644 52.72 163.258 53.424C161.892 54.1067 160.239 54.448 158.298 54.448C156.036 54.448 154.127 54.1067 152.57 53.424C151.012 52.72 149.839 51.7387 149.05 50.48C148.282 49.2 147.898 47.6853 147.898 45.936V31.6H152.698ZM147.994 31.6V33.52H147.898C147.898 33.0507 147.727 32.6667 147.386 32.368C147.066 32.0693 146.671 31.92 146.202 31.92C146.202 31.92 146.116 31.92 145.946 31.92C145.775 31.92 145.69 31.92 145.69 31.92V31.6H147.994ZM154.906 31.6V31.92C154.906 31.92 154.82 31.92 154.65 31.92C154.479 31.92 154.394 31.92 154.394 31.92C153.924 31.92 153.519 32.0693 153.178 32.368C152.858 32.6667 152.698 33.0507 152.698 33.52H152.634V31.6H154.906ZM165.338 31.6V33.52H165.242C165.242 33.0507 165.071 32.6667 164.73 32.368C164.41 32.0693 164.015 31.92 163.546 31.92C163.546 31.92 163.46 31.92 163.29 31.92C163.119 31.92 163.034 31.92 163.034 31.92V31.6H165.338ZM169.754 31.6V31.92C169.754 31.92 169.668 31.92 169.498 31.92C169.327 31.92 169.242 31.92 169.242 31.92C168.772 31.92 168.367 32.0693 168.026 32.368C167.706 32.6667 167.546 33.0507 167.546 33.52H167.482V31.6H169.754Z" fill="#BC8853"/>
<g clip-path="url(#clip0_623_715)">
<path d="M46.621 30C44.1899 30 42.2188 31.9982 42.2188 34.4634V43.0044H43.5397V34.5067C43.5397 32.7813 44.9193 31.3825 46.621 31.3825C48.3228 31.3825 49.7024 32.7813 49.7024 34.5067V43.0044H51.0233V34.4634C51.0233 31.9982 49.0525 30 46.621 30Z" fill="#FFCB57"/>
<path d="M42.2188 40.8279V43.0047H43.5397V40.2033C43.0743 40.3631 42.6319 40.5735 42.2188 40.8282V40.8279Z" fill="#BC8853"/>
<path d="M49.7031 40.2915V43.0047H51.024V40.9842C50.6137 40.706 50.171 40.4729 49.7031 40.2915Z" fill="#BC8853"/>
<path d="M46.2474 31.3825C44.5456 31.3825 43.166 32.7813 43.166 34.5067V43.0044H43.5397V34.5067C43.5397 32.8447 44.8194 31.4863 46.4345 31.3883C46.3727 31.3844 46.3105 31.3825 46.2477 31.3825H46.2474Z" fill="#BC8853"/>
<path d="M46.6204 30C46.5579 30 46.4958 30.0016 46.4336 30.0041C48.7784 30.1035 50.6491 32.0615 50.6491 34.4634V43.0044H51.0227V34.4634C51.0227 31.9982 49.0519 30 46.6204 30Z" fill="#BC8853"/>
<path d="M42.6541 34.303C42.6947 33.9502 42.8011 33.4081 43.1119 32.8265C43.3016 32.4712 43.4981 32.2315 43.6338 32.0679C44.1917 31.3946 44.7729 31.0317 44.8906 30.9598C45.6351 30.5043 46.3503 30.3518 46.8046 30.2954C46.6093 30.2887 46.3371 30.291 46.0156 30.332C46.0156 30.332 45.6621 30.3769 45.3484 30.4641C45.068 30.5421 43.7057 30.991 43.0184 32.3834C42.6362 33.1579 42.6256 33.8942 42.6545 34.3026L42.6541 34.303Z" fill="#BC8853"/>
<path d="M50.0504 35.7055C50.2159 35.1083 50.252 34.6121 50.252 34.2619C50.252 34.0703 50.2513 33.9321 50.2165 33.7627C50.0906 33.1493 49.6479 32.7565 49.3848 32.5632C49.6692 32.9911 49.8046 33.3721 49.8743 33.6297C49.9788 34.0152 49.9973 34.3469 50.0297 34.9256C50.0479 35.2522 50.051 35.5222 50.0504 35.7062V35.7055Z" fill="#BC8853"/>
<path d="M45.6875 54H47.3152C47.4301 49.4834 47.5453 44.9672 47.6602 40.451C47.0028 40.4481 46.345 40.4449 45.6875 40.4421C45.6875 44.9615 45.6875 49.4809 45.6875 54.0003V54Z" fill="#BF7C2C"/>
<path d="M47.3131 53.9997C51.0058 53.9997 53.9993 50.9646 53.9993 47.2207C53.9993 43.4768 51.0058 40.4417 47.3131 40.4417C43.6205 40.4417 40.627 43.4768 40.627 47.2207C40.627 50.9646 43.6205 53.9997 47.3131 53.9997Z" fill="#BC8853"/>
<path d="M45.6862 53.9997C49.3788 53.9997 52.3723 50.9646 52.3723 47.2207C52.3723 43.4768 49.3788 40.4417 45.6862 40.4417C41.9935 40.4417 39 43.4768 39 47.2207C39 50.9646 41.9935 53.9997 45.6862 53.9997Z" fill="#FFAE39"/>
<path d="M48.8234 50.552C50.5559 48.7954 50.5559 45.9474 48.8234 44.1907C47.0908 42.4341 44.2818 42.4341 42.5492 44.1907C40.8166 45.9474 40.8166 48.7954 42.5492 50.552C44.2818 52.3086 47.0908 52.3086 48.8234 50.552Z" fill="#FFC050"/>
<path d="M41.6255 47.3713C41.6255 44.951 43.5113 42.9773 45.8743 42.8777C45.8121 42.8751 45.7493 42.8732 45.6865 42.8732C43.2362 42.8732 41.25 44.887 41.25 47.3713C41.25 49.8556 43.2362 51.8694 45.6865 51.8694C45.7493 51.8694 45.8121 51.8678 45.8743 51.8649C43.5113 51.7653 41.6255 49.7916 41.6255 47.3713Z" fill="#BC8853"/>
<path d="M46.9968 46.1088C46.9968 45.5339 46.5808 45.0678 46.0677 45.0678C45.5547 45.0678 45.1387 45.5339 45.1387 46.1088C45.1387 46.556 45.3905 46.9374 45.744 47.0845C45.5851 47.8816 45.4266 48.6784 45.2677 49.4755H46.8147C46.6571 48.6847 46.4998 47.894 46.3422 47.1033C46.7214 46.9721 46.9971 46.5764 46.9971 46.1085L46.9968 46.1088Z" fill="#BC8853"/>
<path d="M46.5456 46.1088C46.5456 45.5339 46.1296 45.0678 45.6166 45.0678C45.1035 45.0678 44.6875 45.5339 44.6875 46.1088C44.6875 46.556 44.9393 46.9374 45.2929 47.0845C45.134 47.8816 44.9754 48.6784 44.8165 49.4755H46.3635C46.2059 48.6847 46.0486 47.894 45.891 47.1033C46.2703 46.9721 46.5459 46.5764 46.5459 46.1085L46.5456 46.1088Z" fill="#BC8853"/>
<path d="M46.7803 46.1088C46.7803 45.5339 46.3643 45.0678 45.8509 45.0678C45.3376 45.0678 44.9219 45.5339 44.9219 46.1088C44.9219 46.556 45.1737 46.9374 45.5272 47.0845C45.3684 47.8816 45.2098 48.6784 45.0509 49.4755H46.5979C46.4403 48.6847 46.283 47.894 46.1254 47.1033C46.5046 46.9721 46.7803 46.5764 46.7803 46.1085V46.1088Z" fill="#994D1A"/>
<path d="M45.6874 40.4417C45.6246 40.4417 45.5622 40.4427 45.5 40.4443C49.106 40.5449 51.9987 43.5401 51.9987 47.2207C51.9987 50.9013 49.106 53.8962 45.5 53.9971C45.5622 53.9987 45.6246 53.9997 45.6874 53.9997C49.3801 53.9997 52.3736 50.9647 52.3736 47.2207C52.3736 43.4768 49.3801 40.4417 45.6874 40.4417Z" fill="#BC8853"/>
</g>
<defs>
<clipPath id="clip0_623_715">
<rect width="15" height="24" fill="white" transform="translate(39 30)"/>
</clipPath>
</defs>
</svg>
