<svg width="18" height="17" viewBox="0 0 18 17" fill="none" xmlns="http://www.w3.org/2000/svg">
<g clip-path="url(#clip0_435_295)">
<path d="M17.4886 5.83117C17.6377 5.9386 17.7586 6.07747 17.8454 6.23444L16.3883 7.28457V5.0382L17.4886 5.83117ZM8.27726 0.23424C8.70959 -0.077429 9.29064 -0.077429 9.72297 0.23424L11.6976 1.65733H6.30288L8.27749 0.23424H8.27726ZM2.34845 2.06309H12.326C12.326 2.06309 12.326 2.06309 12.3262 2.06309H15.6513C15.8334 2.06309 15.9814 2.21078 15.9814 2.3924V7.57769L9.83995 12.0039C9.33734 12.366 8.66221 12.366 8.15983 12.0039L2.01836 7.57769V2.3924C2.01836 2.21078 2.1664 2.06309 2.34845 2.06309ZM0.511449 5.83117L1.61165 5.0382V7.28457L0.154613 6.23444C0.241442 6.07747 0.362276 5.93883 0.511449 5.83117ZM18 15.7496C18 16.4392 17.4375 17.0004 16.7463 17.0004H1.25368C0.562458 17.0004 0 16.4392 0 15.7496V6.82951C0 6.76392 0.00566765 6.69923 0.0160961 6.63522L7.92179 12.333C8.24439 12.5655 8.62208 12.6818 9 12.6818C9.37792 12.6818 9.75584 12.5655 10.0782 12.333L17.9839 6.63522C17.9941 6.699 18 6.76392 18 6.82951V15.7496Z" fill="#BC8853"/>
</g>
<defs>
<clipPath id="clip0_435_295">
<rect width="18" height="17" fill="white"/>
</clipPath>
</defs>
</svg>
