<svg width="30" height="30" viewBox="0 0 30 30" fill="none" xmlns="http://www.w3.org/2000/svg">
<path d="M13.08 4.1025C13.3037 3.83413 13.5811 3.61563 13.8945 3.46109C14.2078 3.30654 14.5501 3.2194 14.8992 3.20526C15.2483 3.19113 15.5965 3.25032 15.9213 3.37903C16.2461 3.50774 16.5403 3.70309 16.785 3.9525L16.92 4.1025L21.8362 10H25.5675C25.8298 9.99945 26.0893 10.0543 26.3289 10.161C26.5686 10.2677 26.783 10.4238 26.9581 10.6191C27.1332 10.8144 27.2651 11.0445 27.3451 11.2943C27.4252 11.5441 27.4515 11.808 27.4225 12.0688L27.3075 13.0263L27.1825 13.9513L27.08 14.6438L26.9612 15.3875L26.8262 16.1688L26.6737 16.9788L26.5037 17.805C26.4137 18.2217 26.3171 18.6379 26.2137 19.0538C25.937 20.1513 25.5896 21.2298 25.1737 22.2825L24.8975 22.9575L24.63 23.5675L24.3775 24.11L24.26 24.3525L23.9487 24.965C23.5487 25.7275 22.7937 26.1775 21.995 26.2425L21.795 26.25H8.19372C7.75672 26.2533 7.32704 26.1378 6.95057 25.9159C6.57409 25.6939 6.26497 25.3739 6.05622 24.99L5.76622 24.4275L5.54122 23.965L5.42247 23.7088L5.17247 23.1475C4.60159 21.8219 4.13842 20.4525 3.78747 19.0525C3.7196 18.7807 3.6546 18.5082 3.59247 18.235L3.41497 17.425L3.25622 16.6325L3.11622 15.8663L2.99122 15.1325L2.88247 14.44L2.78997 13.7988L2.67747 12.945L2.59497 12.25L2.57372 12.0588C2.54786 11.8132 2.57109 11.5649 2.64207 11.3284C2.71305 11.0919 2.83034 10.8718 2.98714 10.6811C3.14394 10.4903 3.33711 10.3326 3.55541 10.2172C3.77371 10.1018 4.01278 10.0309 4.25872 10.0088L4.42872 10H8.16497L13.08 4.1025ZM24.8537 12.5H5.14122L5.21872 13.105L5.31372 13.79L5.42872 14.545L5.56372 15.355C5.61372 15.6325 5.66622 15.9167 5.72122 16.2075L5.89997 17.0913C5.99497 17.5388 6.09997 17.9938 6.21247 18.4463C6.52969 19.7098 6.9477 20.9458 7.46247 22.1425L7.70747 22.6938L7.93497 23.1738L8.13872 23.5775L8.22872 23.75H21.7625L21.955 23.3713L22.1762 22.915L22.4187 22.3863C22.8775 21.355 23.4025 19.9888 23.7875 18.4463C23.9437 17.8213 24.0825 17.1863 24.2062 16.5625L24.3812 15.64L24.5312 14.7538L24.5975 14.33L24.7162 13.5338L24.8125 12.8213L24.8537 12.5ZM12.4825 16.045L13.1075 19.795C13.1511 20.1171 13.0676 20.4434 12.8746 20.705C12.6817 20.9665 12.3945 21.1426 12.0739 21.1959C11.7533 21.2492 11.4245 21.1756 11.1573 20.9906C10.8901 20.8056 10.7054 20.5238 10.6425 20.205L10.0175 16.455C9.98505 16.2908 9.98592 16.1219 10.02 15.958C10.0541 15.7942 10.1208 15.6389 10.216 15.5014C10.3113 15.3638 10.4331 15.2467 10.5745 15.1571C10.7158 15.0676 10.8736 15.0072 11.0387 14.9798C11.2037 14.9523 11.3726 14.9583 11.5353 14.9973C11.6981 15.0364 11.8513 15.1076 11.9859 15.207C12.1206 15.3063 12.2339 15.4317 12.3192 15.5756C12.4045 15.7196 12.46 15.8792 12.4825 16.045ZM18.81 15L18.955 15.0163C19.2575 15.0662 19.5312 15.2256 19.7238 15.4641C19.9165 15.7027 20.0148 16.0037 20 16.31L19.9837 16.455L19.3587 20.205C19.3057 20.5189 19.1349 20.8007 18.8812 20.993C18.6275 21.1853 18.31 21.2736 17.9934 21.2398C17.6769 21.2059 17.3852 21.0526 17.1778 20.8111C16.9704 20.5696 16.863 20.258 16.8775 19.94L16.8937 19.795L17.5187 16.045C17.5686 15.7429 17.7276 15.4696 17.9657 15.277C18.2037 15.0844 18.5041 14.9858 18.81 15ZM15 5.7025L11.4187 10H18.5812L15 5.7025Z" fill="white"/>
</svg>
