<svg width="12" height="12" viewBox="0 0 12 12" fill="none" xmlns="http://www.w3.org/2000/svg">
<path d="M4.83097 0C4.56576 0 4.3114 0.102753 4.12387 0.285654C3.93633 0.468556 3.83097 0.716623 3.83097 0.975285V1.21325C3.83097 1.31078 3.77097 1.39856 3.68097 1.43952C3.43828 1.55111 3.2052 1.68157 2.98397 1.82963C2.94405 1.85645 2.89724 1.87184 2.84883 1.87408C2.80041 1.87632 2.75232 1.86532 2.70997 1.84231L2.49997 1.7243C2.27029 1.59498 1.99735 1.55993 1.74117 1.62687C1.485 1.69381 1.26659 1.85726 1.13397 2.08126L0.133973 3.77045C0.00137036 3.99445 -0.0345645 4.26065 0.0340734 4.51049C0.102711 4.76034 0.2703 4.97335 0.499973 5.10269L0.701972 5.2168C0.787972 5.26556 0.835972 5.35821 0.827972 5.45574C0.805958 5.71928 0.805958 5.98413 0.827972 6.24767C0.835972 6.3452 0.787972 6.43883 0.701972 6.48662L0.499973 6.60073C0.2703 6.73006 0.102711 6.94308 0.0340734 7.19292C-0.0345645 7.44276 0.00137036 7.70896 0.133973 7.93296L1.13397 9.62216C1.26659 9.84615 1.485 10.0096 1.74117 10.0765C1.99735 10.1435 2.27029 10.1084 2.49997 9.97911L2.70997 9.86208C2.75222 9.83893 2.80027 9.82776 2.84868 9.82983C2.8971 9.8319 2.94396 9.84712 2.98397 9.87378C3.20397 10.0214 3.43631 10.1514 3.68097 10.2639C3.72525 10.2841 3.76281 10.316 3.78934 10.356C3.81587 10.396 3.8303 10.4425 3.83097 10.4902V10.7281C3.83097 10.9868 3.93633 11.2349 4.12387 11.4178C4.3114 11.6007 4.56576 11.7034 4.83097 11.7034H6.83097C7.09619 11.7034 7.35054 11.6007 7.53808 11.4178C7.72562 11.2349 7.83097 10.9868 7.83097 10.7281V10.4736C7.83097 10.3761 7.88897 10.2893 7.97797 10.2483C8.21464 10.1371 8.44064 10.0087 8.65597 9.86305C8.696 9.83605 8.74299 9.82054 8.79161 9.8183C8.84023 9.81606 8.88851 9.82717 8.93097 9.85037L9.16097 9.97911C9.39065 10.1084 9.6636 10.1435 9.91977 10.0765C10.1759 10.0096 10.3944 9.84615 10.527 9.62216L11.527 7.93296C11.6596 7.70896 11.6955 7.44276 11.6269 7.19292C11.5582 6.94308 11.3906 6.73006 11.161 6.60073L10.923 6.46711C10.8813 6.44287 10.8474 6.40773 10.8251 6.36567C10.8029 6.32362 10.7931 6.27632 10.797 6.22914C10.817 5.9779 10.817 5.72552 10.797 5.47427C10.7931 5.42709 10.8029 5.3798 10.8251 5.33774C10.8474 5.29568 10.8813 5.26055 10.923 5.2363L11.161 5.10269C11.3906 4.97335 11.5582 4.76034 11.6269 4.51049C11.6955 4.26065 11.6596 3.99445 11.527 3.77045L10.527 2.08126C10.3944 1.85726 10.1759 1.69381 9.91977 1.62687C9.6636 1.55993 9.39065 1.59498 9.16097 1.7243L8.93097 1.85304C8.88851 1.87624 8.84023 1.88735 8.79161 1.88511C8.74299 1.88287 8.696 1.86737 8.65597 1.84036C8.44067 1.69483 8.21397 1.56602 7.97797 1.45512C7.93437 1.43484 7.89743 1.4031 7.87129 1.36348C7.84514 1.32386 7.83084 1.27792 7.82997 1.23081V0.975285C7.82997 0.716623 7.72462 0.468556 7.53708 0.285654C7.34954 0.102753 7.09519 0 6.82997 0H4.82997H4.83097ZM7.81197 5.85171C7.81197 6.36903 7.60126 6.86517 7.22619 7.23097C6.85111 7.59677 6.34241 7.80228 5.81197 7.80228C5.28154 7.80228 4.77283 7.59677 4.39776 7.23097C4.02269 6.86517 3.81197 6.36903 3.81197 5.85171C3.81197 5.33438 4.02269 4.83825 4.39776 4.47245C4.77283 4.10664 5.28154 3.90114 5.81197 3.90114C6.34241 3.90114 6.85111 4.10664 7.22619 4.47245C7.60126 4.83825 7.81197 5.33438 7.81197 5.85171Z" fill="#BC8853"/>
</svg>
