<svg width="50" height="50" viewBox="0 0 50 50" fill="none" xmlns="http://www.w3.org/2000/svg">
<g clip-path="url(#clip0_182_250)">
<mask id="mask0_182_250" style="mask-type:luminance" maskUnits="userSpaceOnUse" x="0" y="0" width="50" height="50">
<path d="M25 50C38.8071 50 50 38.8071 50 25C50 11.1929 38.8071 0 25 0C11.1929 0 0 11.1929 0 25C0 38.8071 11.1929 50 25 50Z" fill="white"/>
</mask>
<g mask="url(#mask0_182_250)">
<path d="M0 0L0.78125 2.14844L0 4.39453V6.64062L3.125 11.9141L0 17.1875V20.3125L3.125 25L0 29.6875V32.8125L3.125 38.0859L0 43.3594V50L2.14844 49.2188L4.39453 50H6.64062L11.9141 46.875L17.1875 50H20.3125L25 46.875L29.6875 50H32.8125L38.0859 46.875L43.3594 50H50L49.2188 47.8516L50 45.6055V43.3594L46.875 38.0859L50 32.8125V29.6875L46.875 25L50 20.3125V17.1875L46.875 11.9141L50 6.64062V0L47.8516 0.78125L45.6055 0H43.3594L38.0859 3.125L32.8125 0H29.6875L25 3.125L20.3125 0H17.1875L11.9141 3.125L6.64062 0H0Z" fill="#EEEEEE"/>
<path d="M32.8125 0V10.5469L43.3594 0H32.8125ZM50 6.64062L39.4531 17.1875H50V6.64062ZM0 17.1875H10.5469L0 6.64062V17.1875ZM6.64062 0L17.1875 10.5469V0H6.64062ZM17.1875 50V39.4531L6.64062 50H17.1875ZM0 43.3594L10.5469 32.8125H0V43.3594ZM50 32.8125H39.4531L50 43.3594V32.8125ZM43.3594 50L32.8125 39.4531V50H43.3594Z" fill="#0052B4"/>
<path d="M0 0V4.39453L12.793 17.1875H17.1875L0 0ZM20.3125 0V20.3125H0V29.6875H20.3125V50H29.6875V29.6875H50V20.3125H29.6875V0H20.3125ZM45.6055 0L32.8125 12.793V17.1875L50 0H45.6055ZM17.1875 32.8125L0 50H4.39453L17.1875 37.207V32.8125ZM32.8125 32.8125L50 50V45.6055L37.207 32.8125H32.8125Z" fill="#D80027"/>
</g>
</g>
<defs>
<clipPath id="clip0_182_250">
<rect width="50" height="50" fill="white"/>
</clipPath>
</defs>
</svg>
