<svg width="30" height="30" viewBox="0 0 30 30" fill="none" xmlns="http://www.w3.org/2000/svg">
<path d="M20.625 3.8125C22.4588 3.8125 23.9646 4.42162 25.1777 5.63477C26.3909 6.84791 27 8.35366 27 10.1875C27 11.0885 26.8489 11.9699 26.5449 12.834C26.2443 13.6884 25.7055 14.6489 24.9111 15.7168C24.117 16.7843 23.0412 18.0001 21.6777 19.3652C20.3119 20.7327 18.5786 22.3614 16.4775 24.2529L15 25.5781L13.5215 24.2529C11.4215 22.3608 9.68891 20.7319 8.32227 19.3652C6.95791 18.0009 5.88209 16.785 5.08887 15.7168C4.29529 14.6481 3.75768 13.6877 3.45703 12.834C3.15308 11.9708 3.00083 11.0894 3 10.1875L3.00684 9.84766C3.07817 8.16668 3.6849 6.77213 4.82227 5.63477C6.03541 4.42162 7.54116 3.8125 9.375 3.8125C10.3852 3.8125 11.3442 4.02591 12.2568 4.45312C13.1702 4.8807 13.9567 5.4824 14.6191 6.26172L15 6.70996L15.3809 6.26172C16.0433 5.4824 16.8298 4.8807 17.7432 4.45312C18.6558 4.02591 19.6148 3.8125 20.625 3.8125Z" stroke="white"/>
</svg>
