<svg xmlns="http://www.w3.org/2000/svg" width="17" height="39" viewBox="0 0 17 39" fill="none"><path d="M8.04999 38.5964C7.47574 38.5964 7.01062 38.1576 7.01062 37.6158V11.1411C7.01062 10.5993 7.47574 10.1605 8.04999 10.1605C8.62424 10.1605 9.08936 10.5993 9.08936 11.1411V37.6158C9.08936 38.1576 8.62424 38.5964 8.04999 38.5964Z" fill="#BC8853"></path><path d="M7.00629 37.6159H3.3685C3.08008 37.6159 2.84882 37.3978 2.84882 37.1256C2.84882 36.8535 3.08008 36.6354 3.3685 36.6354H7.00629V37.6159Z" fill="#BC8853"></path><path d="M7.00342 34.6743H3.88531V35.6548H7.00342V34.6743Z" fill="#BC8853"></path><path d="M7.00629 34.6742H3.88818C3.31393 34.6742 2.84882 34.2354 2.84882 33.6936C2.84882 33.1519 3.31393 32.7131 3.88818 32.7131H7.00629V34.6742Z" fill="#BC8853"></path><path d="M7.00696 31.7325H5.44791C5.15948 31.7325 4.92822 31.5143 4.92822 31.2422C4.92822 30.9701 5.15948 30.752 5.44791 30.752H7.00696V31.7325Z" fill="#BC8853"></path><path d="M7.35476 6.14513C7.35476 6.14513 7.42492 6.08875 7.55484 5.98579C7.64839 5.90245 7.9602 5.67447 8.29799 5.48081C8.63319 5.29206 9.06712 5.0984 9.58941 4.95622C10.1117 4.82139 10.7223 4.7405 11.3823 4.77972C12.0397 4.81894 12.7491 4.97828 13.4221 5.29696C14.0899 5.61073 14.7395 6.08875 15.2124 6.68198L15.4125 6.94918C15.4696 7.03743 15.519 7.12323 15.5736 7.21148C15.6281 7.29727 15.6723 7.39043 15.7139 7.48358C15.7555 7.57673 15.8048 7.66743 15.8334 7.76549C15.9841 8.1479 16.0569 8.55728 16.0777 8.96666C16.1011 9.37603 16.0465 9.79277 15.9322 10.1899C15.8178 10.587 15.6411 10.9743 15.3995 11.3175C15.3449 11.4058 15.2774 11.4891 15.2098 11.57C15.1422 11.6509 15.0799 11.7342 15.0019 11.8078L14.7785 12.0309L14.7473 12.0603L14.7421 12.0652L14.7291 12.075L14.7031 12.0946L14.6511 12.1363L14.5472 12.2196C14.16 12.5113 13.7729 12.6903 13.3467 12.8128C12.4996 13.0482 11.5928 12.9575 10.8548 12.6069C10.7613 12.5653 10.6703 12.5187 10.5872 12.4672C10.5015 12.4157 10.4131 12.3667 10.3352 12.3054C10.2572 12.2466 10.1715 12.1951 10.1039 12.1265L9.99476 12.0309L9.94019 11.9818L9.91421 11.9573L9.88303 11.9255L9.87263 11.9132C9.81807 11.8495 9.7713 11.8078 9.70893 11.7269C9.64657 11.6435 9.57382 11.5553 9.52704 11.4744C9.42571 11.3126 9.34256 11.1435 9.28279 10.9719C9.03334 10.2781 9.12169 9.55253 9.41531 8.99607C9.56082 8.71662 9.75051 8.47393 9.96618 8.27782L9.97657 8.26802L10.0026 8.2435L10.0207 8.22879L10.0571 8.20183L10.1273 8.14545C10.1818 8.10377 10.2572 8.05475 10.3196 8.01307C10.4495 7.93708 10.5716 7.8758 10.7015 7.82677C11.216 7.63556 11.7149 7.64782 12.0891 7.74342C12.4659 7.83658 12.7283 7.99591 12.8894 8.11603C12.9726 8.17241 13.0271 8.22879 13.0661 8.26311C13.1051 8.29743 13.1233 8.31459 13.1233 8.31459C13.2714 8.44942 13.2766 8.67249 13.1337 8.81222C12.9985 8.94704 12.7777 8.95685 12.627 8.84163L12.5932 8.81467C12.5932 8.81467 12.5802 8.80486 12.5516 8.7828C12.523 8.76319 12.4866 8.72642 12.4295 8.69455C12.3203 8.62101 12.1437 8.53031 11.902 8.48374C11.6603 8.43471 11.3459 8.44942 11.0419 8.58179C10.9666 8.61611 10.8912 8.66023 10.8211 8.70436C10.7899 8.72887 10.7665 8.74113 10.7275 8.77545L10.6626 8.83428L10.6288 8.8637L10.6106 8.87841C10.6106 8.87841 10.5924 8.89556 10.6236 8.86615H10.621L10.6158 8.87595C10.4807 9.01568 10.3663 9.18238 10.2832 9.36868C10.1169 9.74129 10.0935 10.2095 10.2754 10.6287C10.3196 10.7341 10.3793 10.8346 10.4443 10.9302C10.4755 10.9817 10.5092 11.0086 10.5404 11.0503C10.5742 11.092 10.647 11.1582 10.6989 11.2097L10.7093 11.2195C10.7275 11.2391 10.6885 11.1998 10.6937 11.2048L10.6989 11.2097L10.7171 11.2244L10.7561 11.2538L10.8315 11.3151C10.8782 11.3592 10.9406 11.3862 10.9926 11.4254C11.0445 11.4646 11.1069 11.4916 11.164 11.521C11.2212 11.5528 11.2836 11.5798 11.3459 11.6019C11.8422 11.8029 12.4321 11.8249 12.9518 11.646C13.2064 11.5627 13.4663 11.4107 13.6377 11.266L13.8066 11.1116L13.947 10.9523C13.9989 10.9032 14.0327 10.842 14.0743 10.7856C14.1159 10.7292 14.1574 10.6728 14.1912 10.6115C14.3393 10.3762 14.4355 10.1139 14.4952 9.8516C14.555 9.58685 14.5732 9.3172 14.5394 9.05245C14.5082 8.79016 14.4485 8.53276 14.3367 8.29743C14.3159 8.23615 14.277 8.18222 14.2484 8.12584C14.2198 8.06946 14.1886 8.01307 14.1496 7.96159L14.0431 7.80716C14.0067 7.76549 13.9729 7.72626 13.9392 7.68459C13.565 7.26541 13.1207 6.99085 12.6633 6.8021C12.2034 6.61579 11.7331 6.53735 11.3044 6.53735C10.873 6.53735 10.4859 6.61089 10.1585 6.71385C9.83366 6.82416 9.57122 6.96144 9.36854 7.09136C9.31397 7.12078 9.2724 7.15264 9.23862 7.17961C9.20224 7.20657 9.16846 7.23109 9.13728 7.2556C9.08271 7.28747 8.99437 7.37082 8.9346 7.42475C8.81248 7.53506 8.74492 7.59634 8.74492 7.59634C8.32917 7.9714 7.67177 7.95669 7.27421 7.56692C6.87665 7.17716 6.89224 6.55451 7.30539 6.17945C7.31839 6.16474 7.33398 6.15249 7.34957 6.14023L7.35476 6.14513Z" fill="#BC8853"></path><path d="M7.34083 7.59861C7.34083 7.59861 7.27587 7.53978 7.15114 7.42702C7.09138 7.37309 7.00303 7.28974 6.94847 7.25787C6.91728 7.23336 6.88351 7.20885 6.84713 7.18188C6.81335 7.15492 6.77437 7.12305 6.71721 7.09363C6.51453 6.96371 6.25209 6.82643 5.92729 6.71612C5.59988 6.61317 5.21272 6.53717 4.78138 6.53962C4.35264 6.53962 3.87973 6.61807 3.42241 6.80437C2.96249 6.99313 2.51816 7.26768 2.14658 7.68686C2.1128 7.72854 2.07902 7.77021 2.04265 7.80943L1.93611 7.96387C1.89713 8.01535 1.86855 8.07173 1.83737 8.12811C1.80879 8.18449 1.76981 8.23842 1.74902 8.29971C1.63729 8.53259 1.57753 8.79243 1.54635 9.05473C1.51257 9.31702 1.53076 9.58912 1.59052 9.85387C1.65028 10.1186 1.74643 10.3785 1.89454 10.6138C1.92572 10.6751 1.96729 10.7315 2.00887 10.7878C2.05044 10.8442 2.08682 10.9055 2.13879 10.9545L2.2791 11.1139L2.448 11.2683C2.6195 11.4105 2.87934 11.5649 3.13398 11.6483C3.65367 11.8272 4.24611 11.8052 4.73981 11.6041C4.80217 11.5821 4.86453 11.5551 4.9217 11.5233C4.98146 11.4938 5.04122 11.4644 5.09319 11.4276C5.14776 11.3909 5.20752 11.3615 5.25429 11.3173L5.32965 11.2561L5.36863 11.2266L5.38681 11.2119L5.39201 11.207C5.39201 11.207 5.35823 11.2413 5.37642 11.2217L5.38681 11.2119C5.43878 11.158 5.51154 11.0943 5.54532 11.0526C5.5739 11.0109 5.61028 10.984 5.64146 10.9325C5.70902 10.8369 5.76878 10.7364 5.81036 10.631C5.99225 10.2118 5.96886 9.74356 5.80256 9.37095C5.71941 9.18465 5.60508 9.01796 5.46996 8.87823L5.46477 8.87087H5.46217C5.49335 8.89539 5.46996 8.87087 5.47516 8.87823L5.45697 8.86352L5.42319 8.8341L5.35823 8.77527C5.31926 8.7434 5.29587 8.73115 5.26469 8.70418C5.19713 8.6576 5.11918 8.61348 5.04382 8.58161C4.73721 8.44924 4.4228 8.43208 4.18374 8.48356C3.93949 8.52768 3.7654 8.62084 3.65627 8.69438C3.5991 8.7287 3.56272 8.76301 3.53414 8.78263C3.50816 8.80469 3.49256 8.81449 3.49256 8.81449L3.45879 8.84146C3.30028 8.96648 3.06642 8.94442 2.9339 8.79488C2.80918 8.6527 2.82477 8.44434 2.96249 8.31687C2.96249 8.31687 2.98327 8.29971 3.01965 8.26539C3.05863 8.23107 3.1132 8.17714 3.19634 8.1183C3.35745 7.99819 3.61989 7.83885 3.99666 7.7457C4.37083 7.65009 4.86973 7.63784 5.38422 7.82904C5.51414 7.87807 5.63626 7.93936 5.76618 8.01535C5.82855 8.05702 5.9065 8.10605 5.95847 8.14772L6.02862 8.2041L6.065 8.23107L6.08319 8.24578L6.10918 8.27029L6.11957 8.28009C6.33264 8.4762 6.52492 8.71889 6.67043 8.99834C6.96406 9.55726 7.0524 10.2829 6.80295 10.9741C6.74319 11.1482 6.65744 11.3149 6.5587 11.4767C6.51193 11.5576 6.43918 11.6458 6.37681 11.7292C6.31185 11.8101 6.26768 11.8517 6.21311 11.9155L6.20272 11.9277L6.17154 11.9596L6.14555 11.9841L6.09099 12.0331L5.98185 12.1287C5.9117 12.1949 5.82855 12.2464 5.75059 12.3077C5.67264 12.369 5.58689 12.418 5.49855 12.4695C5.4128 12.5234 5.32445 12.57 5.23091 12.6092C4.49556 12.9573 3.58611 13.0505 2.73902 12.8151C2.31288 12.695 1.92572 12.5161 1.53855 12.2219L1.43461 12.1385L1.38265 12.0969L1.35666 12.0773L1.34367 12.0675L1.33587 12.0626L1.30469 12.0331L1.08123 11.8101C1.00328 11.739 0.940915 11.6532 0.873356 11.5723C0.805797 11.4914 0.738238 11.4105 0.683671 11.3198C0.439419 10.9766 0.265325 10.5917 0.150994 10.1922C0.0340654 9.79504 -0.0179031 9.37831 0.00548272 8.96893C0.0262701 8.55955 0.0990259 8.15017 0.249734 7.76776C0.278317 7.6697 0.330285 7.579 0.369262 7.48585C0.410837 7.3927 0.45501 7.29955 0.509577 7.21375C0.561545 7.1255 0.610915 7.0397 0.66808 6.95145L0.868159 6.68426C1.34107 6.09102 1.99068 5.61301 2.65847 5.29923C3.33146 4.98056 4.03823 4.82122 4.69823 4.78199C5.35823 4.74277 5.96886 4.82367 6.49114 4.95849C7.01343 5.10067 7.44476 5.29433 7.77996 5.48309C8.12035 5.67429 8.42957 5.90472 8.52311 5.98807C8.65303 6.09348 8.72319 6.14741 8.72319 6.14741C9.15972 6.49795 9.21169 7.11815 8.84012 7.52998C8.46854 7.94181 7.81114 7.99083 7.37461 7.64029C7.36161 7.63048 7.34343 7.61577 7.33043 7.60352L7.34083 7.59861Z" fill="#BC8853"></path><path d="M8.745 3.7747C8.745 3.7747 8.79177 3.81637 8.87752 3.89727C8.91909 3.93404 8.98406 4.00023 9.01004 4.01248C9.05161 4.03945 9.0698 4.07131 9.14256 4.11054C9.26728 4.19388 9.43098 4.28458 9.63626 4.35812C9.84153 4.42676 10.0884 4.48069 10.3612 4.4856C10.6367 4.4905 10.9381 4.44637 11.2343 4.33361C11.5331 4.21595 11.8189 4.04925 12.0736 3.7747C12.0918 3.75264 12.1126 3.73058 12.1333 3.70851L12.2009 3.61291C12.2503 3.54917 12.2866 3.47563 12.323 3.40454C12.3984 3.25746 12.4374 3.09567 12.4633 2.92898C12.5101 2.59559 12.44 2.23524 12.2607 1.92882C12.1645 1.77193 12.071 1.63711 11.9073 1.49493C11.8163 1.41403 11.65 1.30862 11.4915 1.25469C11.1667 1.13458 10.79 1.14193 10.4704 1.2645C10.3898 1.29146 10.3118 1.33069 10.2417 1.37481C10.2079 1.39933 10.1663 1.41648 10.1352 1.44345L10.0858 1.48267L10.0598 1.50228L10.0468 1.51209H10.0442C10.0442 1.51209 10.078 1.48022 10.0598 1.49738L10.052 1.50473C10.0156 1.5415 9.95846 1.59053 9.94027 1.61505C9.92468 1.63956 9.9039 1.64936 9.88311 1.68123C9.83893 1.74006 9.79996 1.80135 9.77138 1.86754C9.65185 2.12738 9.65705 2.42645 9.75838 2.66423C9.80775 2.78435 9.87791 2.89221 9.96366 2.98291V2.98781H9.96886C9.93768 2.95839 9.96106 2.98046 9.95586 2.97555L9.96886 2.98781L9.99224 3.00987L10.039 3.054L10.091 3.09567C10.13 3.12264 10.1793 3.15205 10.2261 3.17411C10.4132 3.26236 10.6133 3.27462 10.7666 3.24766C10.9225 3.22314 11.0342 3.16676 11.1044 3.12018C11.1771 3.07606 11.2109 3.04419 11.2109 3.04419L11.2213 3.03439C11.372 2.89956 11.6085 2.90692 11.7488 3.04909C11.8891 3.18882 11.8839 3.40945 11.7384 3.54427C11.7384 3.54427 11.7228 3.55898 11.6942 3.58594C11.6656 3.61291 11.6241 3.65458 11.5591 3.69871C11.437 3.79186 11.2369 3.91688 10.9485 3.98797C10.6626 4.06396 10.2807 4.07622 9.88311 3.93159C9.78437 3.89482 9.68823 3.84824 9.58689 3.78941C9.53752 3.75754 9.47516 3.71587 9.43358 3.68645L9.38421 3.64723L9.35823 3.62762L9.34523 3.61781L9.31405 3.59085C9.15035 3.44376 9.00224 3.25746 8.88791 3.04419C8.66185 2.62011 8.58909 2.06365 8.77618 1.52925C8.82035 1.39687 8.88531 1.26695 8.96327 1.14193C8.99705 1.08065 9.05681 1.00711 9.10618 0.943371C9.15555 0.879635 9.18413 0.85267 9.22571 0.806094L9.2335 0.79874L9.26209 0.771775L9.28287 0.752164L9.32185 0.715394L9.4024 0.641853C9.45437 0.590374 9.51933 0.551152 9.57909 0.504576C9.70122 0.416327 9.83374 0.335432 9.97405 0.271696C10.5353 0.00204581 11.2291 -0.0739466 11.8813 0.102552C12.2113 0.193252 12.5049 0.325626 12.8115 0.556055L12.8869 0.614888L12.9233 0.644304L12.9415 0.659012L12.9518 0.666366L12.9856 0.698234L13.1571 0.864927C13.2663 0.980141 13.3728 1.10271 13.4611 1.23508C13.8301 1.75968 14.0198 2.39948 13.9938 3.02703C13.9808 3.34081 13.9263 3.65458 13.8119 3.94875C13.7548 4.09583 13.6924 4.24046 13.6144 4.37528C13.5755 4.44392 13.5365 4.51011 13.4923 4.57875L13.3364 4.78957C12.9856 5.23817 12.4893 5.60832 11.9826 5.85101C11.4707 6.09614 10.9329 6.22362 10.4288 6.25548C9.92468 6.2898 9.45697 6.23097 9.05681 6.13046C8.65665 6.02505 8.32406 5.87797 8.06421 5.73579C7.80177 5.59116 7.54713 5.40241 7.48736 5.35093C7.39382 5.27739 7.34445 5.23817 7.34445 5.23817C6.90272 4.89007 6.84296 4.27233 7.21193 3.85559C7.58091 3.43886 8.23571 3.38248 8.67744 3.73058C8.69823 3.74773 8.71902 3.76489 8.7372 3.7845L8.745 3.7747Z" fill="#BC8853"></path><path d="M8.73983 5.23083C8.73983 5.23083 8.69046 5.27005 8.59691 5.34359C8.53715 5.39262 8.2851 5.58382 8.02006 5.72845C7.76022 5.87063 7.42762 6.01771 7.02747 6.12312C6.62731 6.22363 6.15959 6.28246 5.6555 6.24814C5.15141 6.21628 4.61353 6.08881 4.10164 5.84367C3.59495 5.60098 3.10125 5.23083 2.74787 4.78223L2.58936 4.57141C2.54519 4.50277 2.50881 4.43658 2.46724 4.36795C2.38928 4.23312 2.32692 4.08849 2.26976 3.94141C2.15543 3.64724 2.10346 3.33347 2.08787 3.01969C2.06188 2.39214 2.25157 1.74989 2.62054 1.22774C2.70889 1.09537 2.81542 0.972802 2.92456 0.857588L3.09605 0.690895L3.13243 0.659027L3.14283 0.651673L3.16101 0.636964L3.19739 0.607548L3.27275 0.548715C3.57936 0.318287 3.87558 0.185913 4.20298 0.0952124C4.85519 -0.0812861 5.54896 -0.00529364 6.11022 0.264357C6.25054 0.328092 6.38306 0.408987 6.50518 0.497237C6.56495 0.543813 6.62731 0.583034 6.68188 0.634513L6.76243 0.708054L6.8014 0.744825L6.82219 0.764436L6.85077 0.791401L6.85857 0.798755C6.90014 0.845331 6.92613 0.872296 6.9781 0.936031C7.02747 1.00222 7.08723 1.07331 7.12101 1.13459C7.19896 1.25961 7.26132 1.38953 7.3081 1.52191C7.49518 2.05631 7.42243 2.61032 7.19636 3.03685C7.08463 3.25012 6.93652 3.43397 6.77022 3.58351L6.73904 3.61047L6.72605 3.62028L6.70006 3.63989L6.65069 3.67911C6.60912 3.70853 6.54936 3.7502 6.49739 3.78207C6.39605 3.8409 6.30251 3.88748 6.20117 3.92425C5.80361 4.06888 5.42164 4.05662 5.13581 3.98063C4.84739 3.90709 4.64731 3.78452 4.52519 3.69137C4.46023 3.64724 4.42125 3.60557 4.39007 3.57861C4.36149 3.55164 4.34589 3.53693 4.34589 3.53693C4.19778 3.40211 4.19519 3.17903 4.3381 3.0393C4.48101 2.90203 4.71227 2.89713 4.86038 3.0295L4.87078 3.0393C4.87078 3.0393 4.90456 3.06872 4.97731 3.1153C5.04747 3.15942 5.1618 3.21825 5.31511 3.24277C5.46841 3.27218 5.66589 3.25748 5.85558 3.16923C5.90235 3.14716 5.94912 3.11775 5.9907 3.09078L6.04266 3.04911L6.08944 3.00499L6.11282 2.98292L6.12581 2.97067C6.12581 2.97067 6.144 2.95351 6.11282 2.98292L6.11542 2.97557C6.20117 2.88487 6.27133 2.77701 6.3207 2.65689C6.42203 2.41911 6.42983 2.12004 6.3077 1.8602C6.27912 1.79401 6.24014 1.73273 6.19597 1.67389C6.17518 1.64202 6.15699 1.63222 6.13881 1.60771C6.11802 1.58319 6.06345 1.53416 6.02707 1.49739L6.01928 1.49004C6.00109 1.47043 6.04007 1.50965 6.03487 1.5072H6.03227L6.01928 1.49494L5.99329 1.47533L5.94392 1.43611C5.91274 1.40915 5.87117 1.39199 5.83739 1.36747C5.76463 1.3258 5.68928 1.28413 5.60873 1.25716C5.28912 1.13459 4.91235 1.12969 4.58755 1.24735C4.42904 1.30129 4.26275 1.40669 4.1718 1.48759C4.0055 1.62732 3.91456 1.76459 3.81842 1.92148C3.63912 2.23035 3.57157 2.58825 3.61574 2.92164C3.64172 3.08833 3.6807 3.25012 3.75605 3.3972C3.79243 3.47074 3.82881 3.54183 3.87818 3.60557L3.94574 3.70117C3.96653 3.72324 3.98731 3.7453 4.0055 3.76736C4.25755 4.04191 4.54597 4.20861 4.84479 4.32627C5.14101 4.43903 5.44503 4.48316 5.71786 4.47826C5.99329 4.47335 6.23755 4.42188 6.44282 4.35079C6.6481 4.27724 6.8118 4.18654 6.93652 4.1032C7.00668 4.06398 7.02747 4.02966 7.06904 4.00514C7.09502 3.99289 7.15999 3.92915 7.20156 3.88993C7.28731 3.80903 7.33408 3.76736 7.33408 3.76736C7.74463 3.3874 8.40203 3.39475 8.80479 3.78207C9.20754 4.16938 9.19975 4.78958 8.7892 5.16954C8.76841 5.1867 8.74502 5.20631 8.72683 5.22102L8.73983 5.23083Z" fill="#BC8853"></path><path d="M8.04657 12.1216C9.19463 12.1216 10.1253 11.2436 10.1253 10.1605C10.1253 9.07744 9.19463 8.19943 8.04657 8.19943C6.89852 8.19943 5.96783 9.07744 5.96783 10.1605C5.96783 11.2436 6.89852 12.1216 8.04657 12.1216Z" fill="#BC8853"></path><path d="M13.2421 10.1605C13.8162 10.1605 14.2815 9.72152 14.2815 9.17998C14.2815 8.63844 13.8162 8.19943 13.2421 8.19943C12.6681 8.19943 12.2028 8.63844 12.2028 9.17998C12.2028 9.72152 12.6681 10.1605 13.2421 10.1605Z" fill="#BC8853"></path><path d="M2.84857 10.1605C3.4226 10.1605 3.88794 9.72152 3.88794 9.17998C3.88794 8.63844 3.4226 8.19943 2.84857 8.19943C2.27455 8.19943 1.8092 8.63844 1.8092 9.17998C1.8092 9.72152 2.27455 10.1605 2.84857 10.1605Z" fill="#BC8853"></path></svg>